<svg width="80" height="80" viewBox="0 0 80 80" fill="none" xmlns="http://www.w3.org/2000/svg">
<path d="M40 80C62.0914 80 80 62.0914 80 40C80 17.9086 62.0914 0 40 0C17.9086 0 0 17.9086 0 40C0 62.0914 17.9086 80 40 80Z" fill="#E2EFDC"/>
<path d="M45.0328 10.8332C45.2025 10.6814 45.3831 10.6273 45.5829 10.7758L45.803 11.0459C45.8215 11.3186 45.7368 11.5881 45.5658 11.8013C44.5332 13.2106 43.7574 14.7625 43.1549 16.3988C41.9763 19.6074 41.5688 22.9539 41.4666 26.3481C41.3585 29.8923 41.7172 33.4109 41.9971 36.9388C42.2709 40.3379 42.4815 43.7368 42.1572 47.1481C41.8126 50.7883 40.8251 54.1995 38.6459 57.1967C36.561 60.0573 33.9156 62.2757 30.8311 63.9832C28.8883 65.0591 26.8608 65.9331 24.7055 66.4932C24.4289 66.2118 24.4178 65.9927 24.6592 65.5499C25.5911 65.2745 26.4996 64.9316 27.4048 64.5793C29.6355 63.7105 31.6823 62.5072 33.5794 61.0651C35.2788 59.7742 36.7659 58.2255 37.9869 56.4752C39.3871 54.4902 40.3429 52.2267 40.7892 49.839C40.9046 49.4193 40.9883 48.9915 41.0396 48.5593C41.3461 46.2301 41.4527 43.879 41.3581 41.5316C41.2246 38.2563 40.8697 34.9975 40.6527 31.7286C40.481 29.1511 40.4453 26.5705 40.644 23.9977C40.8585 21.2278 41.3612 18.5096 42.3604 15.9012C42.572 15.1668 42.9266 14.4934 43.2211 13.8509C43.1006 13.9705 42.9612 14.1539 42.7947 14.3109C40.8042 16.2326 38.8227 18.1626 36.8828 20.1352C34.0947 22.9701 31.4131 25.8969 28.9474 29.0128C26.2197 32.4593 23.8513 36.1343 21.958 40.1053C21.692 40.6379 21.4779 41.1914 21.2474 41.74C19.8476 45.0467 19.0834 48.5876 18.9949 52.1774C18.9422 54.0365 19.1581 55.8936 19.636 57.6911C20.137 59.5575 20.8838 61.3145 21.9824 62.8993C22.5644 63.7398 23.1715 64.5812 23.9857 65.2324C24.0935 65.3451 24.1854 65.4722 24.2586 65.61C24.4349 65.9957 24.2959 66.3754 23.985 66.4669C23.8825 66.4018 23.7748 66.3453 23.663 66.2979C23.6079 66.2304 23.5468 66.1678 23.4791 66.1027C21.6835 64.4025 20.293 62.3204 19.4105 60.0104C17.8726 56.056 17.7385 51.99 18.4726 47.8626C19.2562 43.4554 21.019 39.4277 23.2729 35.5943C26.5681 29.986 30.7593 25.0936 35.2549 20.4407C37.8764 17.7282 40.5705 15.1049 43.301 12.5C43.6171 12.1985 43.9701 11.9187 44.148 11.496L44.485 11.2213C44.716 11.16 44.8447 10.9539 45.0328 10.8332Z" fill="#15691B"/>
<path d="M33.813 30.9501C33.9768 30.9773 33.9785 31.1725 34.0062 31.3084C34.1378 31.962 34.197 32.6274 34.3053 33.2842C34.3658 33.6428 34.3124 34.0112 34.1529 34.338C33.8171 35.0759 33.4569 35.8044 33.2054 36.5782C33.0952 36.7513 33.0094 36.9388 32.9506 37.1354C32.2554 38.8755 31.5982 40.6303 30.9788 42.4C30.951 42.4789 30.9225 42.5583 30.8896 42.6323C30.1771 44.5281 29.5431 46.4498 28.9289 48.379C28.8765 48.5341 28.8276 48.6863 28.7855 48.8443C28.1655 50.8411 27.5591 52.8448 27.0287 54.8687C26.9615 55.0574 26.9084 55.2509 26.8701 55.4475C26.0623 58.5337 25.3987 61.6506 24.8793 64.7983C24.7872 65.0577 24.9293 65.3835 24.6519 65.5906C24.6771 65.8904 24.479 66.2058 24.7043 66.4931C24.674 66.4992 24.6452 66.5115 24.6198 66.5292C24.5944 66.5468 24.5728 66.5694 24.5564 66.5956C24.4867 66.5932 24.4174 66.6083 24.3551 66.6395C24.3436 66.6489 24.3273 66.6509 24.3144 66.6558L24.2684 66.6338C24.1625 66.5785 24.0604 66.5167 23.9634 66.4542C24.1151 66.3879 24.1669 66.2433 24.2191 66.0536C24.313 65.7084 23.9918 65.5487 23.9546 65.2756C23.7979 65.1786 23.8574 65.0324 23.8817 64.8968C23.9232 64.7642 23.9468 64.6267 23.9518 64.4878C24.0294 63.8109 24.1074 63.136 24.2086 62.459C24.5655 60.0472 25.0711 57.6649 25.6186 55.2911C25.6621 55.0949 25.7248 54.9044 25.758 54.7065C25.7907 54.5674 25.8282 54.4245 25.863 54.2838C26.3391 52.3312 26.8718 50.3947 27.4611 48.4742C27.5214 48.3253 27.5686 48.1714 27.602 48.0142C28.1449 46.0926 28.7548 44.1895 29.3875 42.298C29.4238 42.2026 29.4542 42.1049 29.4786 42.0058C30.1124 40.2066 30.7397 38.4051 31.3903 36.6126C31.4525 36.4573 31.4989 36.2992 31.5594 36.1431C32.1739 34.5049 32.7997 32.8697 33.5114 31.2611C33.569 31.1265 33.6138 30.918 33.813 30.9501Z" fill="#15691A"/>
<path d="M25.839 54.7563C26.3853 52.6609 26.9171 50.5641 27.5564 48.4919C27.5687 48.2436 27.3662 48.2323 27.2079 48.1872C25.7192 47.7644 24.2691 47.2304 22.8116 46.7137C24.2617 47.2173 25.6978 47.7492 27.1863 48.1261C27.3456 48.1671 27.5411 48.3257 27.6735 48.0661L29.4805 42.3087C29.4858 42.0864 29.2951 42.1227 29.1709 42.0834C28.3104 41.8274 27.4525 41.5636 26.6204 41.2226C26.1462 41.0188 25.6903 40.775 25.2576 40.4938C26.4558 41.2646 27.7994 41.672 29.1494 42.0639C29.2752 42.0996 29.4011 42.1396 29.5297 42.0754C30.0249 40.7096 30.5199 39.3436 31.0148 37.9773C31.1754 37.5306 31.3278 37.0805 31.4844 36.6314C31.4215 36.4523 31.248 36.4352 31.1045 36.3792C30.5118 36.1498 29.894 35.9835 29.3509 35.6385C29.223 35.5574 29.0493 35.518 29.037 35.2796C29.721 35.6211 30.399 35.9371 31.115 36.148C31.2779 36.1962 31.4374 36.2898 31.6184 36.2265C32.148 34.8956 32.6784 33.5642 33.2094 32.2322C33.3731 31.791 33.5887 31.3709 33.8513 30.9806C33.9835 31.8843 34.1213 32.7925 34.2494 33.6996C34.2727 33.866 34.1659 34.0037 34.108 34.152C33.7751 34.9527 33.3537 35.7178 33.1236 36.5605C33.2197 36.7598 33.4166 36.7173 33.5787 36.7369C34.1096 36.8009 34.6429 36.8471 35.1758 36.9038C35.3461 36.9224 35.5263 36.9339 35.5719 37.2339C34.8166 37.1427 34.088 37.1039 33.3663 36.9809C33.1892 36.9499 32.9926 36.8506 32.8757 37.092C32.1446 38.7938 31.5402 40.5408 30.9062 42.2805C30.8973 42.323 30.895 42.3666 30.8992 42.4098C31.8652 42.7068 32.8679 42.7278 33.8633 42.8032C34.6302 42.8602 35.3972 42.8058 36.1645 42.7681C35.5132 42.908 34.8536 42.8848 34.1976 42.8452C33.1706 42.7834 32.1453 42.7045 31.1347 42.4988C31.023 42.4775 30.9031 42.4628 30.8174 42.5742C30.0663 44.479 29.4463 46.4287 28.8254 48.379C28.852 48.617 29.061 48.6197 29.2162 48.6516C32.0566 49.2324 34.9019 49.4112 37.7552 48.745C37.8107 48.7279 37.8675 48.7155 37.925 48.7079C38.0005 48.7025 38.0817 48.7139 38.0998 48.7968C38.118 48.8798 38.0313 48.9167 37.964 48.9335C37.4983 49.0437 37.0265 49.1255 36.5509 49.1784C34.1793 49.454 31.8364 49.2545 29.5074 48.7716C29.2491 48.7181 28.959 48.5028 28.6975 48.7901C28.0598 50.8037 27.46 52.8279 26.9226 54.8709C26.9383 55.0694 27.1082 55.0668 27.2396 55.1081C27.6592 55.2381 28.0963 55.2615 28.5297 55.2927C30.5105 55.4188 32.4905 55.5287 34.4695 55.2169C34.7689 55.1705 35.0674 55.1025 35.3622 55.0285C35.4734 55.0008 35.6253 54.8825 35.6687 55.1079C35.6982 55.2615 35.6692 55.4009 35.4966 55.4607C35.3316 55.516 35.1614 55.5549 34.9888 55.5768C33.6659 55.7483 32.3295 55.7914 30.9983 55.7056C29.6964 55.625 28.3964 55.5373 27.1088 55.3158C26.9957 55.2956 26.8726 55.2837 26.7969 55.406C26.2082 57.4852 25.7459 59.594 25.335 61.7149C25.1366 62.7386 24.9747 63.7697 24.7964 64.7973C24.9244 64.9942 25.1066 64.9255 25.2653 64.8748C27.3572 64.2011 29.374 63.3718 31.1986 62.1137C34.971 59.5103 37.8142 56.1158 39.8981 52.0546C40.2867 51.325 40.6182 50.5663 40.8893 49.7854C41.0384 49.3616 41.0822 48.919 41.1494 48.4776C41.6387 45.1431 41.5246 41.7993 41.2837 38.4542C41.0577 35.304 40.7077 32.1614 40.6356 29.0014C40.5433 24.9509 40.8229 20.9456 42.064 17.0555C42.174 16.7107 42.3014 16.372 42.4211 16.0294C42.1885 15.8683 42.0828 16.0804 41.9694 16.202C40.77 17.4428 39.5875 18.699 38.422 19.9706C36.108 22.4908 33.7753 24.995 31.5366 27.5842C28.4149 31.1912 25.7508 35.1005 23.8876 39.5123C22.6804 42.37 21.844 45.3366 21.302 48.3927C20.9859 50.1666 20.7967 51.9515 20.639 53.7445C20.3467 57.0173 21.1134 60.0506 22.7535 62.8786C23.0212 63.3449 23.2984 63.8034 23.5826 64.2583C23.6759 64.4071 23.7392 64.6668 24.0242 64.5367C24.3949 61.4248 25.0147 58.3525 25.7078 55.297C25.6615 55.0651 25.4569 55.0857 25.2969 55.0521C24.1068 54.7972 22.9213 54.5274 21.7687 54.1295C21.5373 54.0497 21.5354 54.0556 21.3564 53.8678C21.5427 53.7902 21.6998 53.8946 21.8535 53.9481C22.9223 54.3231 24.0228 54.5757 25.1292 54.7954C25.3687 54.8384 25.614 54.9531 25.839 54.7563Z" fill="#529E57"/>
<path d="M24.0269 64.5357C23.6493 64.4311 23.5999 64.0465 23.4349 63.782C22.4055 62.1318 21.5507 60.3954 21.0824 58.4947C20.7835 57.2979 20.659 56.0642 20.7128 54.8319C20.9125 50.6018 21.5893 46.4524 22.9177 42.4227C24.3379 38.118 26.5172 34.2195 29.2457 30.6083C30.7981 28.556 32.502 26.6343 34.2391 24.7394C35.7872 23.0458 37.32 21.3388 38.8743 19.6513C39.9594 18.4734 41.0691 17.3171 42.1701 16.1531C42.2367 16.0831 42.3052 15.9935 42.4276 16.0264C42.7197 15.1825 43.1046 14.3753 43.4296 13.5237C42.7979 14.1274 42.1629 14.7271 41.5411 15.3318C40.9309 15.9252 40.325 16.5229 39.7234 17.125C38.784 18.0627 37.8537 19.0088 36.9122 19.9438C36.0319 20.8176 35.1815 21.7211 34.3324 22.6246C33.0867 23.9492 31.8847 25.309 30.7015 26.6894C28.4203 29.3402 26.3504 32.1658 24.511 35.1402C23.569 36.669 22.7327 38.2555 21.9328 39.8607C21.8997 39.94 21.8724 40.0217 21.851 40.105C21.36 42.0573 20.9532 44.0288 20.6101 46.0122C20.281 47.9123 20.0116 49.8166 19.905 51.7468C19.8005 53.6369 19.8309 55.516 20.0985 57.3884C20.3482 59.1257 20.8448 60.7854 21.7171 62.3187C22.1999 63.1959 22.8257 63.9863 23.5687 64.6575C23.6863 64.7617 23.8032 64.8776 23.9735 64.8894C24.032 64.7813 24.0509 64.6562 24.0269 64.5357Z" fill="#529E57"/>
<path d="M23.9729 64.8955C23.536 64.4368 23.0305 64.0442 22.6473 63.5327C21.7332 62.3182 21.0572 60.9417 20.6549 59.4758C19.9563 56.9479 19.8734 54.3811 20.0161 51.7742C20.1608 49.1061 20.5977 46.4864 21.1344 43.8775C21.3858 42.6611 21.6408 41.4455 21.8995 40.2306C21.9114 40.1736 21.9463 40.1171 21.8487 40.1091C20.8182 42.2378 20.0417 44.4804 19.5352 46.7906C18.9031 49.6741 18.6555 52.5811 19.0845 55.5186C19.4603 58.1041 20.2903 60.5216 21.732 62.7202C22.2598 63.5262 22.889 64.2428 23.5034 64.9758C23.6174 65.1156 23.7429 65.2695 23.9586 65.2791L23.9729 64.8955Z" fill="#529E57"/>
<path d="M40.892 49.7844C40.7164 49.9151 40.6777 50.1254 40.5979 50.3073C39.1318 53.7492 36.984 56.8585 34.284 59.4478C33.5437 60.1693 32.7362 60.8028 31.9337 61.4424C30.684 62.4364 29.2874 63.1939 27.8173 63.8059C26.9655 64.163 26.0855 64.4567 25.2167 64.7739C25.0836 64.8228 24.9417 64.879 24.7964 64.7973L24.6541 65.5877C25.0874 65.6188 25.4654 65.4152 25.8547 65.2833C28.4242 64.4216 30.849 63.1775 33.0477 61.593C36.0525 59.4086 38.4156 56.7156 39.8859 53.2805C40.3646 52.1609 40.7346 51.0017 40.892 49.7844Z" fill="#74B278"/>
<path d="M26.7969 55.406C27.6017 55.4984 28.4055 55.6063 29.213 55.6841C31.0755 55.8595 32.9389 55.9656 34.803 55.7046C35.0605 55.6689 35.315 55.6075 35.572 55.5655C35.7692 55.5318 35.8183 55.4445 35.8029 55.2368C35.7773 54.9103 35.7361 54.8046 35.3464 54.9167C34.1691 55.2538 32.9499 55.316 31.7307 55.3164C30.4118 55.3183 29.0938 55.2444 27.7833 55.0953C27.4877 55.0609 27.177 55.0547 26.9197 54.8631C26.8808 55.0443 26.8383 55.2251 26.7969 55.406Z" fill="#61A865"/>
<path d="M28.6976 48.7833C29.2413 48.7099 29.741 48.9341 30.2595 49.0228C32.8355 49.4571 35.4036 49.5854 37.9794 49.0434C38.2489 48.9866 38.3821 48.9005 38.213 48.6282C38.1178 48.4742 37.9788 48.5628 37.8599 48.5934C34.9585 49.3302 32.0645 49.1124 29.1741 48.5241C29.0516 48.4992 28.909 48.4953 28.825 48.3716L28.6976 48.7833Z" fill="#4D9552"/>
<path d="M25.839 54.7563C24.6484 54.6828 23.5186 54.3293 22.3823 54.0081C22.1042 53.9302 21.8376 53.8115 21.5579 53.7427C21.4503 53.7182 21.2705 53.5377 21.2027 53.7784C21.1465 53.977 21.2749 54.0904 21.4702 54.1493C22.2441 54.3804 23.0117 54.6313 23.7958 54.8293C24.4349 54.9916 25.104 55.0306 25.7158 55.2972L25.839 54.7563Z" fill="#61A965"/>
<path d="M32.8737 37.088C33.1198 36.9088 33.3435 37.113 33.5815 37.1291C34.1709 37.178 34.7586 37.2563 35.3486 37.2991C35.4585 37.3072 35.6593 37.4954 35.6915 37.251C35.7169 37.0505 35.6816 36.8253 35.3591 36.8061C34.7678 36.7701 34.1812 36.6942 33.592 36.6305C33.4352 36.6133 33.2802 36.5802 33.1243 36.5545C32.9735 36.7031 32.92 36.8939 32.8737 37.088Z" fill="#80B984"/>
<path d="M30.8162 42.5686L32.6229 42.7995C33.7861 42.947 34.9515 43.0365 36.1235 42.9094C36.2251 42.8962 36.3849 42.9626 36.373 42.7633C36.3602 42.549 36.2072 42.6164 36.0825 42.6303C34.6452 42.7973 33.2215 42.6846 31.7944 42.5207C31.4945 42.4865 31.2109 42.3221 30.8985 42.4048C30.8742 42.4605 30.8453 42.5133 30.8162 42.5686Z" fill="#62A966"/>
<path d="M27.6763 48.0695C27.3449 48.1621 27.0558 47.9853 26.7561 47.9059C25.4467 47.5404 24.1604 47.0875 22.877 46.6368C22.764 46.5974 22.6504 46.4843 22.4996 46.5971C22.5698 46.7949 22.7645 46.8048 22.9115 46.857C24.3713 47.3752 25.8172 47.9329 27.3214 48.3195C27.3711 48.3288 27.4179 48.3495 27.4582 48.38C27.4985 48.4106 27.5312 48.4501 27.5537 48.4954L27.6763 48.0695Z" fill="#4F9654"/>
<path d="M31.6198 36.2254C30.7199 35.8813 29.7836 35.6274 28.9488 35.0694C28.8076 35.3925 28.9732 35.5474 29.2135 35.6932C29.9242 36.1253 30.727 36.3228 31.4857 36.6303L31.6198 36.2254Z" fill="#80B984"/>
<path d="M29.531 42.0743C28.0073 41.6306 26.4855 41.1853 25.1323 40.2767C25.05 40.5687 25.236 40.6272 25.3819 40.7139C26.1988 41.1791 27.0662 41.5492 27.9672 41.8173C28.4736 41.9765 28.9773 42.1436 29.4825 42.3071C29.5081 42.2747 29.5258 42.2368 29.5342 42.1963C29.5426 42.156 29.5415 42.1142 29.531 42.0743Z" fill="#63AA67"/>
<path d="M60.7053 16.6083C60.9158 16.5019 61.1112 16.4962 61.2713 16.6985L61.4193 17.0279C61.3646 17.3057 61.2075 17.5529 60.9791 17.7204C59.5674 18.8543 58.3744 20.1998 57.3324 21.6763C55.2918 24.5722 53.9862 27.8131 52.9734 31.1836C51.9145 34.7027 51.3298 38.3213 50.6636 41.9282C50.0259 45.4044 49.325 48.8635 48.0852 52.1915C46.7639 55.7433 44.8603 58.8934 41.8747 61.3092C39.0203 63.6137 35.7768 65.1249 32.231 66.007C29.9975 66.5629 27.7333 66.8939 25.4254 66.8765C25.224 66.5206 25.2716 66.2983 25.632 65.9197C26.6389 65.894 27.6403 65.7945 28.641 65.6846C31.1072 65.4131 33.479 64.7575 35.765 63.8228C37.8126 62.9864 39.7168 61.8349 41.4086 60.4101C43.3427 58.7986 44.9067 56.7891 45.994 54.5184C46.2221 54.1292 46.4206 53.7234 46.5879 53.3045C47.5196 51.055 48.257 48.7298 48.7919 46.3545C49.5369 43.0399 50.0557 39.6824 50.7153 36.3517C51.2349 33.7251 51.8913 31.1323 52.7804 28.61C53.7381 25.8946 54.9705 23.3082 56.6705 20.9651C57.0793 20.2866 57.6149 19.7076 58.0821 19.1434C57.9293 19.2308 57.7406 19.3769 57.5319 19.4895C55.0237 20.8794 52.5223 22.2799 50.0511 23.7343C46.4996 25.8244 43.0299 28.035 39.7258 30.493C36.0706 33.2116 32.7138 36.2553 29.7533 39.7229C29.3441 40.1847 28.9812 40.6812 28.6033 41.1686C26.315 44.1035 24.6002 47.4432 23.5487 51.0132C22.9972 52.8603 22.7152 54.7773 22.7114 56.705C22.7124 58.7077 22.9887 60.6669 23.6634 62.5482C24.0204 63.5457 24.4026 64.5509 25.0429 65.4212C25.1207 65.563 25.1786 65.7149 25.2149 65.8725C25.2878 66.3058 25.0469 66.6486 24.7112 66.6569C24.626 66.5643 24.5333 66.4787 24.4341 66.4013C24.3971 66.319 24.3527 66.2399 24.3024 66.1567C22.9609 63.9729 22.1274 61.5155 21.8635 58.9663C21.3847 54.595 22.3412 50.4886 24.1832 46.5536C26.1499 42.3518 28.995 38.7926 32.2796 35.5596C37.0827 30.829 42.5909 27.0554 48.3395 23.6035C51.6914 21.5912 55.0921 19.6877 58.5244 17.8125C58.9218 17.5954 59.3502 17.4099 59.6417 17.0345L60.0527 16.8499C60.3004 16.8505 60.4845 16.6787 60.7053 16.6083Z" fill="#15691B"/>
<path d="M44.077 33.7376C44.2337 33.8087 44.1831 34.0046 44.1743 34.1481C44.1307 34.8377 44.0115 35.5198 43.9438 36.2063C43.908 36.5815 43.7558 36.936 43.5084 37.2204C42.9744 37.869 42.4184 38.5017 41.9591 39.2089C41.8022 39.3526 41.6661 39.5173 41.5544 39.6984C40.3918 41.2539 39.2631 42.8343 38.1684 44.4398C38.1194 44.5112 38.0695 44.5831 38.0166 44.6484C36.7949 46.3551 35.6448 48.1088 34.5123 49.8754C34.4184 50.0166 34.3285 50.156 34.244 50.3027C33.0878 52.1354 31.9432 53.9787 30.8693 55.8625C30.7514 56.0333 30.6464 56.2128 30.5553 56.3995C28.9187 59.2722 27.4183 62.2146 26.054 65.2264C25.8923 65.4613 25.9471 65.8257 25.6139 65.9586C25.5587 66.2654 25.2758 66.528 25.4242 66.876C25.3922 66.8741 25.3602 66.8787 25.33 66.8895C25.2998 66.9004 25.2721 66.9172 25.2486 66.9391C25.1795 66.9179 25.1061 66.9145 25.0353 66.929C25.0213 66.9353 25.0044 66.933 24.9902 66.9344L24.95 66.9C24.8589 66.8162 24.7733 66.727 24.693 66.6384C24.8625 66.6127 24.9533 66.4819 25.0563 66.306C25.2429 65.9856 24.9643 65.7396 25.0002 65.4562C24.8695 65.3171 24.9682 65.1866 25.0289 65.0573C25.1061 64.9358 25.1666 64.8044 25.2088 64.6668C25.468 64.01 25.7272 63.3552 26.01 62.7046C27.0143 60.386 28.1595 58.1366 29.3444 55.9071C29.4406 55.7223 29.5545 55.5484 29.6407 55.3593C29.7107 55.2288 29.7866 55.0958 29.8592 54.9643C30.8596 53.1372 31.9123 51.3415 33.0174 49.577C33.1178 49.4441 33.2063 49.3027 33.2818 49.1544C34.3408 47.3762 35.4618 45.6346 36.6026 43.9108C36.6646 43.825 36.7212 43.7354 36.7722 43.6427C37.8893 42.0116 39.0006 40.3763 40.1327 38.7564C40.2367 38.6177 40.3255 38.4718 40.428 38.3318C41.4825 36.8566 42.5476 35.3875 43.6916 33.9681C43.7854 33.8487 43.8862 33.652 44.077 33.7376Z" fill="#15691A"/>
<path d="M29.7084 55.4307C30.8175 53.4798 31.9122 51.5232 33.1081 49.6204C33.187 49.3751 32.9873 49.3094 32.841 49.2217C31.4641 48.3991 30.1555 47.4756 28.835 46.5674C30.1517 47.4605 31.4467 48.3782 32.8357 49.1548C32.9842 49.2386 33.1374 49.4498 33.3395 49.2254L36.6929 43.9465C36.7579 43.7253 36.5572 43.7105 36.4434 43.6379C35.6506 43.1507 34.8625 42.6566 34.121 42.092C33.701 41.7608 33.3099 41.3944 32.9522 40.9968C33.9449 42.0899 35.1807 42.8581 36.4271 43.6126C36.5435 43.6821 36.6588 43.756 36.8047 43.726C37.6669 42.4916 38.5289 41.2569 39.3907 40.0219C39.6715 39.6177 39.9446 39.208 40.2218 38.8005C40.2069 38.6043 40.0378 38.5407 39.9092 38.446C39.3774 38.0574 38.8036 37.7253 38.3524 37.2341C38.246 37.1187 38.0828 37.0326 38.1344 36.7907C38.7276 37.316 39.3216 37.8143 39.9817 38.2175C40.1319 38.3094 40.2664 38.4459 40.4646 38.4311C41.3519 37.2408 42.2399 36.0501 43.1289 34.8592C43.4111 34.4615 43.7395 34.0987 44.1072 33.7784C43.9971 34.7186 43.8915 35.6646 43.7764 36.6071C43.7551 36.78 43.6111 36.8892 43.5135 37.0221C42.9655 37.7344 42.3382 38.3873 41.8819 39.1693C41.9247 39.3945 42.1332 39.4048 42.2901 39.4679C42.8045 39.6743 43.326 39.8636 43.8443 40.0634C44.0097 40.1276 44.187 40.1875 44.1522 40.5C43.4205 40.2062 42.7016 39.9719 42.012 39.6551C41.8432 39.5766 41.6729 39.4245 41.4912 39.6347C40.3027 41.1423 39.2291 42.7291 38.1277 44.3006C38.1074 44.3408 38.0934 44.3838 38.086 44.4282C38.9734 44.9847 39.9716 45.2747 40.9478 45.6171C41.7003 45.8798 42.4828 46.0312 43.261 46.1993C42.5714 46.1646 41.9174 45.9644 41.2713 45.7489C40.2596 45.4115 39.2544 45.0574 38.2979 44.5804C38.1918 44.5292 38.0757 44.4824 37.9601 44.5709C36.6972 46.2763 35.5534 48.0618 34.4088 49.8477C34.3716 50.0931 34.58 50.1518 34.7269 50.2254C37.4146 51.5687 40.2151 52.5109 43.2502 52.6094C43.3103 52.6072 43.3705 52.61 43.4301 52.6177C43.5071 52.6326 43.5853 52.6658 43.5812 52.7537C43.5772 52.8417 43.4805 52.8554 43.4086 52.854C42.9129 52.8395 42.4185 52.7949 41.9282 52.7202C39.4802 52.36 37.1882 51.5318 34.9862 50.4237C34.7419 50.3008 34.5092 50.0075 34.1705 50.225C32.9919 52.0696 31.8484 53.9351 30.7625 55.8362C30.725 56.0391 30.8958 56.0821 31.0162 56.1587C31.4013 56.4014 31.8327 56.5422 32.2582 56.6895C34.2074 57.3471 36.16 57.9883 38.2248 58.207C38.537 58.2409 38.8541 58.2528 39.1691 58.2578C39.2878 58.26 39.4717 58.1823 39.4545 58.4196C39.4429 58.5812 39.3765 58.713 39.1876 58.7266C39.0075 58.7377 38.8269 58.731 38.6482 58.7066C37.2778 58.5234 35.9284 58.2081 34.6188 57.7651C33.337 57.3352 32.0592 56.8987 30.8296 56.3316C30.7218 56.281 30.6016 56.236 30.4932 56.3382C29.3461 58.2618 28.3175 60.2489 27.3373 62.2619C26.8642 63.2334 26.4254 64.2223 25.9713 65.2032C26.0466 65.4346 26.2474 65.4147 26.4199 65.4064C28.6949 65.2932 30.9363 65.004 33.1003 64.2339C37.5752 62.6396 41.332 60.004 44.5076 56.4974C45.0924 55.8713 45.6277 55.2006 46.1087 54.4916C46.3716 54.1073 46.5341 53.676 46.7198 53.2522C48.1041 50.0453 48.8868 46.6672 49.543 43.2539C50.1617 40.0395 50.6543 36.7997 51.4298 33.6169C52.4239 29.5371 53.7781 25.6025 56.0641 22.0411C56.2667 21.7254 56.4851 21.4205 56.6968 21.1096C56.5073 20.8859 56.3445 21.0699 56.1984 21.1613C54.6648 22.0817 53.144 23.0221 51.6362 23.9824C48.6436 25.8848 45.6366 27.7659 42.701 29.7574C38.6082 32.5309 34.8927 35.7299 31.844 39.6467C29.8689 42.1838 28.2359 44.9293 26.8735 47.8433C26.0812 49.5343 25.4131 51.2704 24.7741 53.0231C23.6036 56.2211 23.5575 59.4633 24.4409 62.7344C24.5838 63.273 24.7382 63.8063 24.9008 64.338C24.9542 64.5119 24.948 64.7889 25.2682 64.7351C26.474 61.7193 27.9187 58.8099 29.4321 55.937C29.4478 55.6923 29.2375 55.6581 29.0863 55.5815C27.9633 55.0071 26.849 54.419 25.8019 53.7116C25.5916 53.5695 25.5881 53.575 25.4593 53.3389C25.6665 53.3111 25.7958 53.458 25.9354 53.5526C26.9048 54.2148 27.9388 54.7629 28.9873 55.2796C29.2157 55.3869 29.4304 55.5675 29.7084 55.4307Z" fill="#99CA9C"/>
<path d="M25.271 64.7348C24.9212 64.5288 24.9749 64.1305 24.8806 63.8215C24.2927 61.8934 23.9028 59.9258 23.9438 57.8973C23.9656 56.6191 24.172 55.3507 24.5564 54.1315C25.8909 49.9502 27.6816 45.978 30.0924 42.3001C32.6687 38.3717 35.8962 35.0535 39.5963 32.1703C41.701 30.5322 43.9222 29.0653 46.1694 27.6344C48.1735 26.3542 50.1659 25.0565 52.1746 23.7841C53.5769 22.8959 54.9979 22.036 56.4124 21.1661C56.4978 21.1139 56.5905 21.0426 56.7041 21.1083C57.2229 20.3419 57.8247 19.6371 58.3786 18.8717C57.5843 19.3066 56.7877 19.7366 56.0029 20.1752C55.2329 20.6055 54.4661 21.0414 53.7023 21.4828C52.5103 22.1696 51.3252 22.8671 50.1319 23.5506C49.0163 24.1892 47.9226 24.8656 46.8301 25.5423C45.2279 26.5342 43.6596 27.5731 42.105 28.6375C39.1102 30.6794 36.2801 32.9528 33.6408 35.4371C32.2878 36.7148 31.0249 38.0788 29.7936 39.4711C29.7392 39.5417 29.6899 39.6161 29.6462 39.6937C28.631 41.5165 27.6948 43.381 26.8193 45.2746C25.9803 47.0885 25.1998 48.9226 24.5752 50.8263C23.9636 52.6904 23.4899 54.5798 23.2555 56.5259C23.0395 58.3321 23.0915 60.1269 23.5535 61.8958C23.8015 62.9034 24.2159 63.8626 24.7797 64.7339C24.8695 64.8697 24.9555 65.0171 25.1228 65.0746C25.2103 64.9821 25.2627 64.8619 25.271 64.7348Z" fill="#99CA9C"/>
<path d="M25.1206 65.0806C24.8062 64.5042 24.4055 63.9755 24.1591 63.3608C23.5697 61.8997 23.2623 60.3403 23.2528 58.7649C23.2314 56.0468 23.8368 53.4551 24.6791 50.8836C25.5396 48.2514 26.6798 45.746 27.9169 43.2783C28.4948 42.1279 29.0762 40.9793 29.661 39.8326C29.6883 39.7787 29.7384 39.7315 29.6428 39.6972C28.0402 41.5519 26.6612 43.5887 25.5345 45.7655C24.1282 48.4825 23.1004 51.3263 22.742 54.3823C22.4247 57.0713 22.6071 59.714 23.4607 62.3017C23.7728 63.2502 24.2105 64.1364 24.629 65.0351C24.7056 65.2055 24.7899 65.3933 25.0033 65.4608L25.1206 65.0806Z" fill="#529E57"/>
<path d="M46.1115 54.4913C45.9008 54.5751 45.8055 54.7753 45.6768 54.936C43.2859 57.9883 40.3018 60.5248 36.9042 62.3927C35.9695 62.9164 34.9913 63.3341 34.0163 63.7591C32.4985 64.4191 30.8973 64.8028 29.2614 65.0209C28.3129 65.15 27.3531 65.208 26.3983 65.2924C26.252 65.3058 26.0948 65.3239 25.9713 65.2032L25.6168 65.9562C26.0422 66.1036 26.4752 66.0012 26.9003 65.9736C29.7038 65.8002 32.465 65.2052 35.0911 64.2086C38.6851 62.828 41.7732 60.7659 44.1667 57.7214C44.9461 56.729 45.6274 55.6678 46.1115 54.4913Z" fill="#74B278"/>
<path d="M30.4932 56.3382C31.274 56.6467 32.0497 56.9702 32.8372 57.2648C34.6547 57.9399 36.4916 58.546 38.4279 58.7847C38.6952 58.8181 38.9665 58.8249 39.2349 58.8518C39.4414 58.8709 39.5141 58.7967 39.5544 58.5846C39.6163 58.2509 39.6033 58.134 39.1832 58.1416C37.9142 58.1633 36.6769 57.8986 35.4564 57.5719C34.1354 57.22 32.8358 56.7926 31.5639 56.2917C31.2772 56.1781 30.9678 56.0884 30.7617 55.8276C30.6741 55.9987 30.5831 56.1682 30.4932 56.3382Z" fill="#61A865"/>
<path d="M34.1724 50.2181C34.7363 50.2905 35.1765 50.6489 35.6717 50.8768C38.134 52.0026 40.6706 52.82 43.3945 52.9682C43.6796 52.9837 43.836 52.9332 43.7397 52.6152C43.6858 52.4356 43.5229 52.487 43.3956 52.4858C40.2934 52.4451 37.4547 51.4507 34.719 50.0864C34.6029 50.0287 34.4612 49.9865 34.4103 49.8401L34.1724 50.2181Z" fill="#4D9552"/>
<path d="M29.7084 55.4307C28.5363 55.0378 27.5 54.3809 26.4486 53.7546C26.1911 53.6021 25.9561 53.4116 25.6946 53.2679C25.5933 53.2143 25.4619 52.9854 25.3293 53.2082C25.2199 53.392 25.318 53.54 25.4977 53.6512C26.2105 54.0902 26.9116 54.5472 27.6434 54.9559C28.2398 55.2897 28.899 55.5083 29.44 55.9393L29.7084 55.4307Z" fill="#61A965"/>
<path d="M41.4901 39.6303C41.7846 39.5168 41.9538 39.7812 42.1877 39.8612C42.7647 40.0683 43.332 40.3043 43.9111 40.5054C44.0191 40.5431 44.1695 40.7853 44.2673 40.5493C44.3465 40.3553 44.3716 40.1204 44.0539 40.0147C43.4717 39.82 42.9047 39.5867 42.332 39.3649C42.1796 39.3057 42.0333 39.2309 41.8841 39.1632C41.6933 39.2718 41.5886 39.4484 41.4901 39.6303Z" fill="#80B984"/>
<path d="M37.9603 44.5648L39.707 45.2807C40.832 45.7404 41.9747 46.1427 43.182 46.3297C43.2873 46.3438 43.4295 46.4532 43.471 46.2504C43.5156 46.0324 43.3444 46.0589 43.2158 46.0394C41.7322 45.821 40.3372 45.3263 38.9524 44.7794C38.6614 44.6646 38.4216 44.4239 38.0867 44.423C38.0474 44.4722 38.0044 44.5174 37.9603 44.5648Z" fill="#62A966"/>
<path d="M33.3414 49.2295C32.9848 49.2333 32.7428 48.9788 32.4642 48.8189C31.2513 48.1019 30.0851 47.3034 28.9212 46.5079C28.8186 46.4382 28.7352 46.2945 28.5541 46.367C28.5713 46.5839 28.7635 46.646 28.8966 46.7376C30.2191 47.648 31.517 48.5941 32.9191 49.3846C32.9663 49.4073 33.0077 49.4406 33.0398 49.482C33.0719 49.5234 33.0941 49.5716 33.1044 49.6231L33.3414 49.2295Z" fill="#4F9654"/>
<path d="M40.4663 38.4304C39.6577 37.8444 38.7885 37.3392 38.1025 36.5566C37.8745 36.8421 37.9987 37.0417 38.2001 37.2521C38.7957 37.8753 39.5464 38.2883 40.2234 38.7998L40.4663 38.4304Z" fill="#80B984"/>
<path d="M36.8063 43.7253C35.3999 42.8725 33.996 42.0185 32.885 40.7459C32.7243 41.0161 32.8947 41.1245 33.0176 41.2505C33.7106 41.9353 34.4796 42.5385 35.3098 43.0486C35.7739 43.3438 36.2333 43.6462 36.6954 43.9453C36.7297 43.9198 36.7575 43.8866 36.7767 43.8484C36.796 43.8102 36.8061 43.7681 36.8063 43.7253Z" fill="#63AA67"/>
<path d="M68.2505 31.3304C68.4614 31.2885 68.6344 31.3313 68.7255 31.5481L68.7748 31.8736C68.6588 32.1042 68.4604 32.2829 68.2189 32.3741C66.7017 33.0244 65.3248 33.914 64.0484 34.9557C61.5479 36.9995 59.6084 39.5261 57.8943 42.2383C56.1032 45.0695 54.7044 48.1042 53.2368 51.1087C51.8262 54.0054 50.3643 56.8715 48.4613 59.4908C46.4318 62.2865 43.9894 64.5871 40.7764 65.9781C37.7058 67.3034 34.4878 67.8369 31.1581 67.7439C29.0607 67.6856 26.9913 67.4223 24.9688 66.8423C24.879 66.4805 24.9752 66.2969 25.3844 66.0526C26.2749 66.2764 27.1787 66.4341 28.0844 66.5823C30.3165 66.9475 32.5598 66.9521 34.796 66.6905C36.7987 66.457 38.7527 65.9118 40.587 65.0745C42.6798 64.1325 44.545 62.7505 46.0554 61.0225C46.351 60.7366 46.6246 60.4288 46.8741 60.1018C48.2426 58.3543 49.4591 56.4928 50.5101 54.5378C51.9753 51.8093 53.2525 48.9877 54.6467 46.2242C55.7457 44.0448 56.9565 41.9284 58.3545 39.9309C59.8599 37.7807 61.575 35.8109 63.6412 34.1692C64.1663 33.6734 64.7783 33.2959 65.3266 32.9149C65.171 32.9542 64.9696 33.0364 64.7587 33.0841C62.216 33.6909 59.6767 34.3089 57.1507 34.9815C53.5204 35.9479 49.9325 37.0402 46.4295 38.3903C42.5544 39.8833 38.8618 41.7349 35.4135 44.0555C34.9411 44.361 34.501 44.7083 34.0499 45.0439C31.3222 47.0613 28.9991 49.5747 27.2022 52.4524C26.2659 53.9394 25.5492 55.5539 25.0743 57.2459C24.5851 59.0048 24.3483 60.793 24.4806 62.6101C24.55 63.5735 24.6397 64.5497 24.989 65.4707C25.0227 65.6143 25.0364 65.7617 25.0296 65.9091C24.9876 66.3075 24.6922 66.5495 24.3953 66.4747C24.3432 66.3724 24.2827 66.2747 24.2145 66.1824C24.2022 66.1011 24.1825 66.0208 24.1587 65.9354C23.515 63.6894 23.3843 61.3274 23.7764 59.0242C24.4255 55.0683 26.2702 51.6962 28.8506 48.6913C31.6058 45.4826 34.9752 43.0532 38.6507 41.0177C44.0262 38.0387 49.7867 36.0726 55.6796 34.4477C59.1155 33.5008 62.5678 32.6612 66.0407 31.8543C66.4428 31.7609 66.8643 31.7028 67.2123 31.4444L67.6183 31.383C67.8356 31.444 68.0394 31.3382 68.2505 31.3304Z" fill="#15691B"/>
<path d="M49.4567 42.3042C49.5769 42.4051 49.4845 42.5647 49.4417 42.6885C49.2347 43.2835 48.9631 43.8533 48.7357 44.4397C48.6125 44.7603 48.3921 45.0344 48.1053 45.2236C47.4775 45.6626 46.8344 46.0822 46.2581 46.5907C46.0851 46.6786 45.9253 46.7899 45.783 46.9217C44.3813 48.0032 43.0034 49.1148 41.6493 50.2569C41.5887 50.3077 41.5274 50.3586 41.465 50.403C39.9745 51.6028 38.5354 52.8615 37.1086 54.1358C36.9915 54.2367 36.8786 54.3372 36.7684 54.4454C35.3046 55.7719 33.8485 57.1106 32.4444 58.5021C32.2991 58.6233 32.163 58.7552 32.0373 58.8968C29.8972 61.0192 27.8596 63.236 25.9246 65.547C25.7251 65.7137 25.684 66.0471 25.3589 66.0823C25.2354 66.3382 24.9227 66.4996 24.9679 66.8416C24.9403 66.8321 24.911 66.8283 24.8818 66.8304C24.8527 66.8325 24.8242 66.8405 24.7983 66.854C24.7427 66.8185 24.6791 66.7975 24.6134 66.7929C24.5995 66.7951 24.5853 66.7889 24.5724 66.7867L24.5456 66.7466C24.4861 66.6508 24.4328 66.5514 24.3838 66.4539C24.5391 66.4729 24.6507 66.3802 24.7843 66.2509C25.0266 66.0153 24.842 65.7311 24.943 65.491C24.8622 65.3368 24.9808 65.2464 25.0657 65.1478C25.1632 65.0599 25.2485 64.9593 25.3193 64.8488C25.7076 64.3354 26.0954 63.8237 26.503 63.3216C27.9522 61.5312 29.5084 59.8361 31.0944 58.1681C31.2241 58.0295 31.3666 57.9046 31.4886 57.7596C31.5821 57.6622 31.6813 57.5639 31.7772 57.4661C33.1027 56.1064 34.4666 54.7871 35.8688 53.5079C35.9895 53.4158 36.1018 53.3133 36.2044 53.2015C37.5696 51.8991 38.98 50.6439 40.4037 49.4093C40.4791 49.3491 40.5507 49.2843 40.6182 49.2153C41.9983 48.0563 43.3744 46.8921 44.7649 45.7465C44.8901 45.6501 45.0039 45.5438 45.1281 45.4459C46.4151 44.4085 47.71 43.3789 49.0619 42.4123C49.1735 42.3305 49.31 42.1824 49.4567 42.3042Z" fill="#15691A"/>
<path d="M31.5307 57.8389C32.9819 56.3969 34.422 54.9467 35.9379 53.5682C36.0672 53.3721 35.9079 53.2656 35.8009 53.1528C34.7929 52.0935 33.8698 50.9623 32.9324 49.8416C33.8701 50.9481 34.7828 52.0709 35.8126 53.0927C35.9225 53.2026 36.0054 53.4256 36.2377 53.278L40.4742 49.4626C40.5854 49.2844 40.4128 49.2223 40.3307 49.1306C39.7537 48.5089 39.1825 47.8821 38.6695 47.2048C38.3816 46.8112 38.1278 46.3937 37.911 45.9571C38.5153 47.1599 39.4126 48.1369 40.3225 49.1044C40.4077 49.1939 40.4909 49.287 40.6264 49.2965C41.6855 48.4234 42.7446 47.55 43.8037 46.6764C44.1491 46.3901 44.4893 46.0971 44.8324 45.807C44.8673 45.6311 44.7343 45.5339 44.6446 45.4193C44.2726 44.9479 43.85 44.5158 43.5739 43.9742C43.5088 43.8466 43.3865 43.7312 43.491 43.5314C43.8835 44.1378 44.2832 44.7207 44.7642 45.2364C44.8735 45.3538 44.9583 45.5066 45.136 45.5421C46.2064 44.7139 47.2776 43.8856 48.3496 43.0572C48.6948 42.777 49.072 42.5388 49.4733 42.3475C49.1465 43.1462 48.8223 43.9512 48.4906 44.7506C48.4296 44.8973 48.2764 44.9579 48.1582 45.0508C47.5026 45.5422 46.7921 45.9621 46.2 46.5371C46.1824 46.7453 46.363 46.8054 46.4855 46.8992C46.8866 47.2063 47.2983 47.5003 47.7045 47.8024C47.8341 47.8993 47.9751 47.9953 47.8681 48.2613C47.2974 47.8242 46.7235 47.4425 46.1954 46.9956C46.0663 46.8853 45.954 46.7101 45.743 46.8503C44.3305 47.8835 42.9993 49.0142 41.6476 50.1247C41.62 50.1551 41.5971 50.1894 41.5798 50.2266C42.2228 50.9324 43.0285 51.4313 43.8021 51.9708C44.3985 52.3857 45.0486 52.7101 45.6909 53.0481C45.0939 52.8489 44.5685 52.5132 44.0539 52.1658C43.248 51.6219 42.4519 51.065 41.7286 50.4122C41.6479 50.3411 41.5575 50.2716 41.4343 50.3211C39.908 51.5097 38.4666 52.7979 37.0245 54.0861C36.9317 54.2924 37.1004 54.3951 37.2114 54.4956C39.243 56.3329 41.4718 57.8455 44.113 58.6748C44.1663 58.6874 44.2185 58.7046 44.269 58.726C44.3329 58.7579 44.3935 58.8063 44.3684 58.8824C44.3434 58.9586 44.255 58.9471 44.1922 58.9283C43.7605 58.7942 43.3373 58.6341 42.925 58.4486C40.8634 57.5332 39.0532 56.2451 37.3906 54.7331C37.2062 54.5655 37.0736 54.2509 36.7229 54.359C35.2365 55.6906 33.7759 57.0491 32.3571 58.4528C32.2745 58.6219 32.4139 58.7015 32.501 58.7982C32.7798 59.1055 33.1242 59.3346 33.4618 59.5682C35.0126 60.6226 36.5705 61.6634 38.3302 62.3607C38.596 62.4669 38.8716 62.555 39.147 62.6364C39.2508 62.6673 39.4312 62.6442 39.3581 62.8484C39.3084 62.9874 39.2177 63.0869 39.0486 63.0526C38.8878 63.0183 38.7307 62.9682 38.5797 62.903C37.4211 62.4069 36.3133 61.7998 35.2716 61.0903C34.2512 60.3992 33.2358 59.7032 32.2948 58.9043C32.2125 58.8336 32.118 58.7647 31.9977 58.8278C30.5197 60.2363 29.1303 61.7297 27.7769 63.2576C27.1236 63.9951 26.4965 64.7561 25.8577 65.5064C25.8671 65.728 26.0484 65.7597 26.2019 65.7947C28.2274 66.2519 30.2665 66.5463 32.3553 66.3995C36.6752 66.0944 40.6192 64.6992 44.2659 62.3967C44.9327 61.9899 45.5669 61.532 46.1627 61.0271C46.4876 60.7539 46.7358 60.4149 47.0027 60.0882C49.0029 57.6106 50.5169 54.8356 51.9283 51.9987C53.2582 49.3273 54.4835 46.6027 55.9432 43.9974C57.8145 40.6579 59.9666 37.5339 62.8454 34.9657C63.1006 34.7381 63.367 34.5237 63.629 34.3026C63.5172 34.0598 63.3293 34.1815 63.1787 34.226C61.6067 34.659 60.041 35.1127 58.4819 35.5871C55.3885 36.5255 52.2875 37.4417 49.2223 38.4722C44.9495 39.9065 40.9038 41.8066 37.2681 44.5004C34.9129 46.245 32.807 48.2565 30.8976 50.4821C29.788 51.7732 28.7765 53.1344 27.7865 54.5173C25.9762 57.0392 25.1423 59.8752 25.1177 62.9639C25.1114 63.4718 25.1166 63.978 25.1293 64.4847C25.1336 64.6505 25.0604 64.8922 25.3548 64.9233C27.1515 62.5699 29.132 60.3685 31.164 58.2158C31.2378 58.0048 31.0615 57.9233 30.9475 57.8191C30.1018 57.0399 29.2672 56.2508 28.5206 55.3733C28.3708 55.1971 28.3663 55.201 28.311 54.9622C28.4998 54.9885 28.5774 55.1491 28.6768 55.2664C29.3661 56.0851 30.14 56.8194 30.9344 57.5297C31.1087 57.6798 31.2531 57.891 31.5307 57.8389Z" fill="white"/>
<path d="M25.3573 64.9238C25.1004 64.6572 25.2451 64.3206 25.2379 64.0262C25.1934 62.1891 25.3324 60.3658 25.8647 58.5945C26.1967 57.4773 26.6882 56.4139 27.3241 55.4373C29.5192 52.092 32.0636 49.0417 35.0806 46.4019C38.3044 43.5825 41.9507 41.4582 45.9054 39.8316C48.1545 38.908 50.464 38.1634 52.7876 37.4566C54.8608 36.8227 56.928 36.1706 59.0033 35.5447C60.452 35.1079 61.9103 34.7004 63.3654 34.2826C63.4532 34.2577 63.552 34.2177 63.6357 34.3032C64.2788 33.7571 64.9798 33.2854 65.6535 32.7488C64.8495 32.9364 64.0448 33.1191 63.2482 33.3122C62.4668 33.5017 61.6867 33.6968 60.908 33.8975C59.6932 34.209 58.4817 34.5317 57.2665 34.8399C56.1306 35.1278 55.0047 35.454 53.8797 35.7811C52.2299 36.26 50.5986 36.7886 48.9728 37.3431C45.8433 38.4033 42.8017 39.7073 39.876 41.2432C38.3752 42.0342 36.9324 42.923 35.5105 43.8444C35.4454 43.8931 35.3839 43.9464 35.3266 44.0038C33.989 45.3561 32.7107 46.7644 31.4785 48.2132C30.2978 49.6007 29.1636 51.0204 28.1494 52.5394C27.1561 54.0268 26.2779 55.5701 25.596 57.2217C24.9643 58.7551 24.5708 60.3439 24.5436 62.0104C24.5149 62.956 24.6441 63.8997 24.926 64.8027C24.9716 64.9439 25.0111 65.0944 25.144 65.1858C25.2435 65.126 25.3189 65.0334 25.3573 64.9238Z" fill="white"/>
<path d="M25.1405 65.1906C25.0055 64.6075 24.783 64.0452 24.717 63.445C24.557 62.0177 24.6685 60.5731 25.0456 59.1873C25.692 56.7952 26.8578 54.6673 28.2266 52.6151C29.6264 50.5141 31.2406 48.593 32.9308 46.7286C33.7199 45.8597 34.5114 44.9934 35.3056 44.1294C35.3427 44.0888 35.3983 44.0596 35.3227 44.0061C33.4615 45.2427 31.7522 46.6939 30.2301 48.3299C28.3303 50.3718 26.732 52.6177 25.6695 55.2136C24.7328 57.4974 24.2465 59.8628 24.3628 62.3442C24.4049 63.2534 24.5724 64.1387 24.72 65.0303C24.7455 65.1988 24.7736 65.3843 24.9445 65.4958L25.1405 65.1906Z" fill="white"/>
<path d="M46.1652 61.0275C45.9597 61.0495 45.8271 61.202 45.6748 61.3116C42.8283 63.407 39.587 64.9044 36.1463 65.7134C35.1974 65.9446 34.236 66.072 33.2759 66.2067C31.7816 66.4149 30.2816 66.3601 28.7915 66.1514C27.927 66.0327 27.0699 65.8487 26.2109 65.6893C26.079 65.6651 25.9366 65.6426 25.8577 65.5064L25.3621 66.0809C25.6996 66.3144 26.105 66.3305 26.4849 66.4102C28.9893 66.9439 31.5598 67.0971 34.1098 66.8645C37.6038 66.5314 40.8202 65.4762 43.667 63.3882C44.5944 62.7074 45.4524 61.9422 46.1652 61.0275Z" fill="white"/>
<path d="M31.9977 58.8278C32.6079 59.2897 33.2101 59.7637 33.8295 60.2151C35.2604 61.2527 36.7253 62.2343 38.3672 62.9178C38.5938 63.0125 38.8303 63.0848 39.0595 63.1742C39.2362 63.2414 39.3181 63.1941 39.4054 63.0177C39.5414 62.7398 39.5586 62.634 39.1878 62.5379C38.0681 62.2464 37.0464 61.7112 36.0544 61.1256C34.9805 60.4935 33.9438 59.8001 32.9494 59.049C32.7255 58.879 32.4756 58.7246 32.3584 58.4452C32.2398 58.5739 32.1183 58.7005 31.9977 58.8278Z" fill="#61A865"/>
<path d="M36.7262 54.3536C37.2038 54.555 37.5026 54.9776 37.8817 55.2989C39.7686 56.89 41.7961 58.2284 44.152 59.0251C44.3985 59.1084 44.5483 59.1024 44.5415 58.7996C44.5381 58.6287 44.3823 58.6339 44.271 58.6017C41.5566 57.8069 39.307 56.2391 37.2384 54.3716C37.1507 54.2925 37.0366 54.2208 37.0276 54.0798L36.7262 54.3536Z" fill="#4D9552"/>
<path d="M31.5307 57.8389C30.5975 57.207 29.8481 56.3766 29.0781 55.5693C28.8893 55.3723 28.7295 55.1477 28.535 54.9574C28.4592 54.8856 28.3998 54.6524 28.2288 54.8157C28.0878 54.9502 28.1377 55.1042 28.2683 55.2459C28.7868 55.8058 29.2907 56.3787 29.8334 56.9166C30.2754 57.3557 30.8009 57.709 31.1705 58.2198L31.5307 57.8389Z" fill="#61A965"/>
<path d="M45.7432 46.8461C46.0295 46.8185 46.1134 47.0921 46.2993 47.2196C46.7553 47.5426 47.1956 47.8887 47.6551 48.207C47.7407 48.2665 47.8135 48.516 47.9572 48.3327C48.0741 48.1818 48.1537 47.9816 47.9006 47.811C47.4368 47.4976 46.996 47.154 46.5474 46.8191C46.4281 46.7297 46.3179 46.6283 46.2034 46.5324C46.0094 46.581 45.8741 46.7105 45.7432 46.8461Z" fill="white"/>
<path d="M41.436 50.3158L42.7947 51.3719C43.6701 52.0508 44.5751 52.6836 45.5896 53.1434C45.6787 53.1815 45.7767 53.3123 45.8628 53.1444C45.9553 52.9639 45.7985 52.9452 45.6905 52.8967C44.4409 52.3419 43.337 51.566 42.2547 50.747C42.0272 50.575 41.8755 50.3049 41.5816 50.2222C41.5351 50.2558 41.4863 50.2849 41.436 50.3158Z" fill="#62A966"/>
<path d="M36.2383 53.2821C35.9243 53.1982 35.774 52.9154 35.5685 52.7069C34.6788 51.7804 33.8501 50.7938 33.0226 49.8105C32.9495 49.7241 32.9115 49.5775 32.7347 49.5968C32.6967 49.7915 32.8503 49.8932 32.9449 50.0062C33.8834 51.1292 34.7917 52.2777 35.8295 53.3149C35.8655 53.3464 35.8936 53.3857 35.9118 53.4299C35.9298 53.4741 35.9374 53.522 35.9339 53.5696L36.2383 53.2821Z" fill="#4F9654"/>
<path d="M45.1376 45.5419C44.571 44.8295 43.9312 44.1731 43.5203 43.318C43.2501 43.513 43.3104 43.7186 43.4358 43.9526C43.8064 44.6456 44.3645 45.192 44.834 45.8068L45.1376 45.5419Z" fill="white"/>
<path d="M40.628 49.2962C39.6016 48.2031 38.5776 47.1097 37.9133 45.7203C37.7061 45.9182 37.8292 46.0552 37.9064 46.1958C38.3474 46.9667 38.8751 47.6847 39.4793 48.3357C39.8147 48.7086 40.1442 49.0865 40.4767 49.4623C40.513 49.4482 40.5457 49.4259 40.5719 49.3971C40.5981 49.3682 40.6173 49.3337 40.628 49.2962Z" fill="#63AA67"/>
</svg>
