<svg width="18" height="18" viewBox="0 0 18 18" fill="none" xmlns="http://www.w3.org/2000/svg">
<path d="M18 8.99951C18 4.02842 13.9711 -0.000488281 9 -0.000488281C4.02891 -0.000488281 0 4.02842 0 8.99951C0 13.9706 4.02891 17.9995 9 17.9995C9.05273 17.9995 9.10547 17.9995 9.1582 17.996V10.9929H7.22461V8.73936H9.1582V7.07998C9.1582 5.15693 10.3324 4.10928 12.048 4.10928C12.8707 4.10928 13.5773 4.16904 13.7812 4.19717V6.20811H12.6C11.6684 6.20811 11.4855 6.65107 11.4855 7.30146V8.73584H13.718L13.4262 10.9894H11.4855V17.6515C15.2473 16.5722 18 13.1093 18 8.99951Z" fill="#333333"/>
</svg>
