<svg width="18" height="18" viewBox="0 0 18 18" fill="none" xmlns="http://www.w3.org/2000/svg">
<path d="M9 -0.000488281C4.0302 -0.000488281 0 4.02971 0 8.99951C0 13.9693 4.0302 17.9995 9 17.9995C13.9698 17.9995 18 13.9693 18 8.99951C18 4.02971 13.9698 -0.000488281 9 -0.000488281ZM6.3847 13.605H4.19279V7.01057H6.3847V13.605ZM5.28882 6.11011H5.27454C4.539 6.11011 4.06329 5.60378 4.06329 4.97096C4.06329 4.32387 4.55356 3.83154 5.30338 3.83154C6.05319 3.83154 6.51462 4.32387 6.5289 4.97096C6.5289 5.60378 6.05319 6.11011 5.28882 6.11011ZM14.2883 13.605H12.0966V10.0771C12.0966 9.19054 11.7793 8.58588 10.9862 8.58588C10.3807 8.58588 10.0201 8.99374 9.8616 9.38747C9.80365 9.52837 9.78951 9.7253 9.78951 9.92236V13.605H7.59773C7.59773 13.605 7.62643 7.62924 7.59773 7.01057H9.78951V7.94427C10.0808 7.49493 10.6019 6.8558 11.7648 6.8558C13.2069 6.8558 14.2883 7.79829 14.2883 9.82376V13.605Z" fill="#333333"/>
</svg>
