<svg width="265" height="40" viewBox="0 0 265 40" fill="none" xmlns="http://www.w3.org/2000/svg">
<path d="M166.084 24.715C165.466 26.0622 162.996 31.1917 156.924 31.1917C150.595 31.1917 146.684 25.5959 146.684 19.7927C146.684 14.3523 150.338 8.60104 156.873 8.60104C162.122 8.60104 165.003 12.4352 166.084 15.285H176.272C175.243 9.27461 168.863 0 156.924 0C144.472 0 136.959 10.0518 136.959 19.8446C136.959 30.2073 145.089 39.7927 157.027 39.7927C166.238 39.7927 174.06 33.7824 176.272 24.715H166.084Z" fill="#3F3F3F"/>
<path d="M174.73 24.6632C174.73 31.7098 179.722 39.9482 190.116 39.9482C200.51 39.9482 205.502 31.7098 205.502 24.6632C205.502 17.6166 200.51 9.37824 190.116 9.37824C179.722 9.37824 174.73 17.6166 174.73 24.6632ZM183.272 24.6632C183.272 20.4663 186.411 17.4093 190.116 17.4093C193.821 17.4093 196.96 20.4663 196.96 24.6632C196.96 28.8601 193.821 31.9171 190.116 31.9171C186.411 31.9171 183.272 28.8601 183.272 24.6632Z" fill="#3F3F3F"/>
<path d="M235.194 0.725389H226.652V12.7461C225.725 11.8135 223.307 9.32642 218.264 9.32642C211.009 9.32642 204.113 14.8705 204.113 24.6114C204.113 33.2642 209.774 40 218.418 40C224.182 40 226.24 37.1503 226.96 35.9585H227.063V39.0674H235.194V0.725389ZM212.655 24.5596C212.655 21.2435 214.971 17.3575 219.911 17.3575C224.645 17.3575 227.115 21.0881 227.115 24.5596C227.115 27.5648 225.159 31.9689 219.808 31.9689C215.794 31.9689 212.655 29.0155 212.655 24.5596Z" fill="#3F3F3F"/>
<path d="M255.274 30.0518C254.091 31.5544 252.702 32.7461 250.077 32.7461C246.732 32.7461 243.902 30.7254 243.388 27.3057H264.794C264.897 26.6321 265 26.1658 265 25.0259C265 16.2694 258.619 9.32642 249.923 9.32642C241.227 9.32642 234.949 16.7358 234.949 24.7668C234.949 33.3161 241.895 40 250.077 40C253.01 40 255.84 39.1192 258.207 37.4093C260.626 35.7513 262.633 33.2642 264.022 30.0518H255.274ZM243.491 21.5026C243.851 19.7927 245.549 16.5803 249.974 16.5803C254.4 16.5803 256.098 19.7927 256.458 21.5026H243.491Z" fill="#3F3F3F"/>
<path d="M17.8853 17.2539V25.0777H29.2435C28.2156 28.8083 24.9777 31.2435 20.1466 31.2435C15.367 31.2435 9.71356 27.772 9.71356 19.7409C9.71356 12.1762 15.3156 8.60104 20.0953 8.60104C24.2068 8.60104 26.9821 10.8808 28.4726 13.5751H39.3682C37.261 6.1658 29.4491 0 20.3522 0C9.14822 0 0 8.29015 0 19.7409C0 30.7772 8.68567 39.8446 20.198 39.8446C30.7339 39.8446 40.4989 32.1244 40.4989 19.2746C40.4989 18.4974 40.4989 17.9275 40.4475 17.2539H17.8853Z" fill="#99CA9C"/>
<path d="M40.217 39.0674H48.7485V23.2642C48.7485 18.9119 51.5238 18.0829 55.4812 17.9793V9.32642C50.5473 9.32642 49.0569 11.9689 48.3373 13.3679H48.2346V10.3109H40.217V39.0674Z" fill="#99CA9C"/>
<path d="M72.6148 30.0518C71.4328 31.5544 70.0451 32.7461 67.424 32.7461C64.0833 32.7461 61.2566 30.7254 60.7427 27.3057H82.1228C82.2256 26.6321 82.3284 26.1658 82.3284 25.0259C82.3284 16.2694 75.9555 9.32642 67.2698 9.32642C58.5841 9.32642 52.314 16.7358 52.314 24.7668C52.314 33.3161 59.2522 40 67.424 40C70.3535 40 73.1802 39.1192 75.5443 37.4093C77.9599 35.7513 79.9642 33.2642 81.3519 30.0518H72.6148ZM60.8455 21.5026C61.2052 19.7927 62.9013 16.5803 67.3212 16.5803C71.7411 16.5803 73.4371 19.7927 73.7969 21.5026H60.8455Z" fill="#99CA9C"/>
<path d="M100.958 30.0518C99.776 31.5544 98.3884 32.7461 95.7672 32.7461C92.4266 32.7461 89.5999 30.7254 89.086 27.3057H110.466C110.569 26.6321 110.672 26.1658 110.672 25.0259C110.672 16.2694 104.299 9.32642 95.6131 9.32642C86.9274 9.32642 80.6573 16.7358 80.6573 24.7668C80.6573 33.3161 87.5955 40 95.7672 40C98.6967 40 101.523 39.1192 103.888 37.4093C106.303 35.7513 108.308 33.2642 109.695 30.0518H100.958ZM89.1888 21.5026C89.5485 19.7927 91.2445 16.5803 95.6645 16.5803C100.084 16.5803 101.78 19.7927 102.14 21.5026H89.1888Z" fill="#99CA9C"/>
<path d="M110.542 39.0674H119.074V23.4197C119.074 21.658 119.074 17.4093 123.956 17.4093C128.428 17.4093 128.428 21.3472 128.428 23.3679V39.0674H136.959V21.0881C136.959 15.4404 135.212 13.1606 133.67 11.8135C132.128 10.4663 129.096 9.32642 126.372 9.32642C121.284 9.32642 119.485 11.9689 118.611 13.3679H118.509V10.3109H110.542V39.0674Z" fill="#99CA9C"/>
</svg>
