<svg width="2851" height="656" viewBox="0 0 2851 656" fill="none" xmlns="http://www.w3.org/2000/svg">
<path d="M2835.43 434.649C2829.11 435.583 2824.06 439.407 2818.95 442.588C2774.37 470.367 2729.66 497.606 2683.99 523.547C2605.66 568.03 2525.11 607.571 2438.1 632.56C2378.59 649.647 2318.17 659.45 2256.02 654.731C2197.82 650.316 2143.5 634.456 2095.48 599.957C2067.38 580.047 2044.12 554.076 2027.42 523.964C2026.22 521.831 2024.76 519.9 2023.41 517.876C2024.8 512.247 2031.44 510.843 2036.74 515.133C2038.35 516.597 2039.74 518.277 2040.89 520.123C2046.85 533.359 2056.09 544.464 2065.4 555.226C2082.96 575.536 2104.07 591.708 2127.49 604.926C2150.05 617.604 2174.33 626.959 2199.56 632.702C2248.27 643.958 2298.67 645.934 2348.11 638.527C2356.28 637.343 2364.51 636.353 2372.63 634.623C2432.74 622.832 2490.49 603.656 2546.44 578.847C2597.05 556.37 2645.82 530.361 2693.66 502.634C2726.99 483.316 2759.89 463.291 2792.74 443.174C2795.46 441.503 2798.42 440.259 2800.43 439.02C2790.75 440.772 2780.43 443.208 2769.79 443.515C2731.14 447.896 2692.76 445.294 2654.68 438.589C2619.27 432.351 2584.6 422.92 2550.45 411.652C2507.14 397.399 2464.43 381.312 2420.72 368.154C2389.4 358.734 2357.33 352.017 2324.86 348.077C2318.87 347.247 2312.82 346.876 2306.78 346.969C2273.02 344.711 2239.18 349.751 2207.55 361.746C2179.71 372.143 2153.67 386.824 2130.37 405.259C2104.35 425.848 2081.02 449.264 2061.57 476.33C2053.68 487.313 2045.93 498.404 2038.97 509.997C2032.15 511.705 2029.24 510.795 2026.4 506.09C2041.43 478.97 2060.26 454.672 2081.49 432.196C2115.21 396.527 2154.3 368.549 2200.14 350.406C2248.1 331.405 2297.53 329.931 2347.81 337.899C2394.9 345.378 2440 359.944 2484.91 375.463C2531.46 391.507 2577.71 408.512 2625.89 419.354C2672 429.738 2718.51 435.809 2765.89 431.084C2790.06 428.611 2813.66 423.511 2836.24 414.466C2839.7 412.9 2843.63 412.693 2847.24 413.887L2850.12 417.792C2851.45 421.02 2850.08 423.25 2847.44 425.01C2845.16 427.128 2841.94 428.149 2840.32 431.044L2835.43 434.649Z" fill="#15691B"/>
<path d="M2040.24 520.406C2036.69 518.957 2035.6 514.109 2030.67 514.143C2027.24 514.196 2024.76 514.489 2023.47 517.937C1998.18 514.418 1972.83 511.195 1947.58 507.277C1930.3 504.599 1913.14 501.108 1895.85 498.316C1881.11 495.926 1866.43 492.88 1851.71 489.974C1832.1 486.137 1812.78 481 1793.21 476.787C1757.67 469.185 1723.25 457.728 1688.57 447.098C1639.89 432.154 1592.51 413.66 1545.35 394.601C1519.44 384.093 1493.75 373.117 1468.02 362.385C1465.39 361.311 1462.8 359.921 1460.19 358.684C1458.65 358.086 1458.43 357.342 1459.94 356.409C1470.99 355.8 1480.22 361.605 1489.83 365.61C1544.66 388.485 1599.04 412.42 1655.35 431.564C1689.5 443.154 1723.86 453.813 1759.01 462.033C1799.82 471.569 1840.88 479.652 1882.18 486.8C1918.6 493.105 1955.18 498.348 1991.73 503.771C2001.3 505.185 2010.93 506.287 2020.53 507.498C2022.65 507.769 2024.98 508.737 2026.47 506.134C2029.6 510.139 2034.5 508.591 2038.46 509.98C2042.24 506.926 2046.11 509.993 2049.93 509.652C2094.18 513.549 2138.51 515.41 2182.92 515.237C2185.7 515.401 2188.49 515.357 2191.27 515.105C2220.4 514.971 2249.5 513.758 2278.61 512.319C2280.86 512.27 2283.11 512.177 2285.37 511.99C2313.51 510.397 2341.59 508.542 2369.66 505.481C2370.8 505.333 2371.95 505.194 2373.1 505.083C2399.11 502.88 2425.05 500.104 2450.92 496.754C2453.78 496.642 2456.61 496.136 2459.32 495.25C2470.63 494.542 2481.71 492.221 2492.82 490.243C2497.78 489.225 2502.93 489.784 2507.55 491.841C2516.03 495.58 2524.82 498.706 2533.16 502.727C2534.9 503.571 2537.52 504.273 2537.32 506.575C2537.07 509.382 2534.1 509.263 2532.02 509.607C2507.89 513.56 2483.68 516.337 2459.39 518.887C2457.09 519.19 2454.79 519.258 2452.47 519.539C2426.04 522.095 2399.58 524.316 2373.12 526.614C2371.7 526.603 2370.28 526.674 2368.86 526.828C2341.14 528.832 2313.39 530.423 2285.58 531.087C2283.35 530.991 2281.12 531.091 2278.9 531.385C2250.95 532.756 2222.96 533.167 2195.03 532.796C2193.02 532.77 2190.96 532.779 2188.97 532.745C2186.18 532.506 2183.4 532.691 2180.6 532.598C2146.69 531.748 2112.82 530.314 2079.06 526.753C2069.6 525.764 2060.23 524.465 2050.81 523.178C2048.92 522.769 2046.98 522.61 2045.05 522.705C2043.18 522.561 2041.04 522.904 2040.24 520.406Z" fill="#15691A"/>
<path d="M1459.88 356.33L1460.13 358.605C1458.26 358.609 1456.57 358.214 1455.53 356.461C1456.21 356.128 1456.94 355.943 1457.69 355.921C1458.44 355.898 1459.19 356.038 1459.88 356.33Z" fill="#15691B"/>
<path d="M2188.62 531.496C2218.76 531.395 2248.88 531.497 2279.05 530.072C2282.43 530.758 2281.88 533.528 2281.94 535.818C2282.48 557.359 2284.65 578.765 2286.56 600.21C2284.8 578.909 2282.61 557.699 2282.69 536.322C2282.69 534.032 2281.23 530.845 2285.19 529.961L2369.09 525.561C2372.1 526.261 2370.95 528.706 2371.05 530.517C2371.52 543.008 2372.1 555.491 2373.81 567.894C2374.92 574.994 2376.62 581.988 2378.92 588.798C2372.68 569.968 2371.84 550.439 2371.25 530.885C2371.2 529.055 2371.09 527.218 2372.41 525.708C2392.54 523.767 2412.68 521.829 2432.81 519.894C2439.4 519.277 2445.99 518.784 2452.59 518.231C2454.79 519.7 2454.42 522.098 2454.67 524.228C2455.71 533.015 2455.81 541.921 2458.58 550.442C2459.23 552.448 2459.16 554.927 2462.33 555.919C2460.1 545.511 2458.19 535.273 2457.83 524.887C2457.75 522.534 2457.04 520.058 2458.52 517.837C2478.31 515.31 2498.1 512.776 2517.9 510.236C2524.41 509.554 2530.82 508.102 2537 505.911C2525.27 500.995 2513.5 495.986 2501.71 491.113C2499.56 490.232 2497.32 491.186 2495.12 491.451C2483.16 493.153 2471.39 496.183 2459.22 496.363C2456.87 494.376 2458.13 491.868 2458.42 489.615C2459.4 482.234 2460.63 474.882 2461.71 467.5C2462.05 465.14 2462.52 462.67 2458.64 461.024C2457.24 471.516 2455.25 481.484 2454.41 491.643C2454.2 494.128 2454.86 497.124 2451.2 497.862C2425.72 501.828 2400.06 503.91 2374.41 506.426C2373.8 506.398 2373.21 506.279 2372.64 506.071C2371.98 492.016 2375.18 478.422 2377.61 464.74C2379.5 454.201 2382.9 444.046 2386.07 433.841C2381.92 442.129 2379.95 451.102 2378.21 460.085C2375.48 474.148 2372.99 488.247 2372.26 502.587C2372.15 504.168 2371.94 505.835 2370.14 506.603C2341.85 510.126 2313.41 511.726 2284.96 513.333C2281.84 512.15 2282.53 509.322 2282.64 507.118C2284.66 466.814 2292.11 427.818 2311 391.663C2311.41 390.968 2311.78 390.243 2312.08 389.493C2312.41 388.494 2312.54 387.36 2311.49 386.837C2310.45 386.314 2309.63 387.336 2309.17 388.186C2306.07 394.083 2303.33 400.166 2300.98 406.4C2289.03 437.412 2283.59 469.697 2282.04 502.785C2281.86 506.454 2283.75 511.103 2278.97 513.632C2249.61 515.248 2220.23 516.316 2190.83 516.487C2188.2 515.577 2188.82 513.295 2188.72 511.38C2188.42 505.272 2189.63 499.305 2190.71 493.344C2195.92 466.256 2201.25 439.099 2212.31 413.496C2213.98 409.619 2215.93 405.829 2217.95 402.11C2218.71 400.707 2220.83 399.068 2217.94 397.703C2215.97 396.772 2214 396.69 2212.59 398.8C2211.27 400.834 2210.16 402.997 2209.27 405.254C2202.36 422.492 2197.14 440.36 2193.69 458.606C2190.26 476.44 2186.93 494.273 2185.46 512.413C2185.34 514.008 2185.07 515.711 2183.16 516.306C2153.08 517.024 2123.04 515.945 2093.02 514.14C2078.53 513.264 2064.06 511.862 2049.58 510.702C2047.38 508.304 2048.93 506.075 2050.17 504.121C2066.51 478.24 2084.68 453.921 2107.98 433.692C2156.16 391.843 2211.82 365.255 2273.82 351.251C2285 348.534 2296.38 346.696 2307.85 345.753C2314.08 345.214 2320.2 346.158 2326.4 346.792C2373.06 351.759 2417.74 364.883 2462.01 379.732C2503.71 393.705 2544.87 409.323 2587.23 421.264C2641.52 436.546 2696.5 446.667 2753.26 443.422C2758.3 443.144 2763.3 442.592 2768.33 442.166C2769.71 445.869 2766.47 446.551 2764.44 447.657C2743.55 459.534 2722.51 471.122 2701.32 482.421C2659.31 504.883 2617.46 527.654 2574.79 548.87C2515.32 578.455 2453.36 600.81 2387.41 610.633C2344.69 617.001 2301.79 617.99 2258.7 614.7C2233.7 612.821 2208.96 609.172 2184.24 605.08C2139.09 597.672 2100.85 576.814 2068.41 544.891C2063.06 539.674 2057.83 534.337 2052.68 528.926C2051 527.153 2047.72 525.398 2050.46 522.006C2093.74 527.849 2137.28 530.097 2180.85 531.3C2183.82 532.729 2182.83 535.416 2182.73 537.7C2182.04 554.621 2181.56 571.541 2182.93 588.463C2183.2 591.861 2183.12 591.875 2185.04 594.94C2186.73 592.699 2185.86 590.207 2185.67 587.95C2184.52 572.272 2184.5 556.532 2185.61 540.851C2185.88 537.552 2185.15 533.808 2188.62 531.496Z" fill="#99CA9C"/>
<path d="M2050.47 522.016C2050.57 527.479 2055.58 529.469 2058.58 532.611C2077.26 552.225 2097.71 569.763 2121.71 582.67C2136.81 590.85 2153.02 596.807 2169.82 600.355C2227.55 612.333 2285.85 617.596 2344.79 613.659C2407.76 609.438 2467.89 593.572 2526.04 569.305C2559.1 555.489 2590.92 539.179 2622.5 522.328C2650.7 507.316 2679.03 492.568 2707.17 477.461C2726.82 466.914 2746.26 455.963 2765.77 445.152C2766.95 444.498 2768.39 443.884 2768.38 442.12C2780.77 441.108 2792.99 438.717 2805.6 437.288C2795.27 443.712 2784.98 450.194 2774.67 456.482C2764.56 462.663 2754.39 468.747 2744.19 474.784C2728.28 484.188 2712.3 493.451 2696.42 502.904C2681.59 511.743 2666.46 520.077 2651.33 528.394C2629.15 540.596 2606.64 552.09 2583.93 563.256C2540.28 584.829 2495 602.94 2448.51 617.421C2424.63 624.821 2400.34 630.606 2375.92 635.815C2374.7 636.012 2373.47 636.119 2372.23 636.134C2344.2 635.983 2316.22 634.642 2288.28 632.39C2261.52 630.236 2234.9 627.255 2208.5 622C2182.66 616.854 2157.42 609.927 2133.11 599.836C2110.54 590.434 2089.89 577.981 2072.24 560.911C2062.09 551.356 2053.6 540.173 2047.12 527.824C2046.12 525.877 2044.97 523.898 2045.4 521.561C2047.09 521.104 2048.88 521.265 2050.47 522.016Z" fill="#529E57"/>
<path d="M2045.43 521.496C2050.1 528.977 2053.64 537.164 2059.2 544.095C2072.41 560.634 2088.63 574.523 2107 585.031C2138.66 603.218 2172.99 613.238 2208.63 620.354C2245.11 627.656 2281.96 630.859 2318.99 632.659C2336.26 633.489 2353.54 634.223 2370.82 634.991C2371.63 635.027 2372.52 634.763 2372.28 636.098C2340.01 642.619 2307.08 645.315 2274.17 644.131C2233.09 642.646 2193.04 635.913 2154.91 619.93C2121.37 605.882 2091.65 586.307 2067.01 559.242C2057.97 549.329 2050.49 538.361 2042.73 527.532C2041.25 525.521 2039.6 523.285 2040.26 520.392L2045.43 521.496Z" fill="#74B277"/>
<path d="M2307.86 345.763C2305.49 347.677 2302.52 347.47 2299.79 347.915C2248.3 355.747 2198.92 373.925 2154.64 401.353C2142.35 408.833 2131 417.524 2119.6 426.136C2101.86 439.53 2086.8 455.734 2073.45 473.437C2065.68 483.683 2058.67 494.531 2051.38 505.145C2050.26 506.771 2049.01 508.49 2049.61 510.731C2045.88 510.462 2042.17 510.189 2038.46 509.91C2039.53 503.949 2043.59 499.559 2046.72 494.777C2067.27 463.123 2092.48 434.749 2121.49 410.611C2161.3 377.642 2205.81 355.116 2257.25 347.233C2273.99 344.642 2290.9 343.663 2307.86 345.763Z" fill="#74B278"/>
<path d="M2183.18 516.325C2184.71 505.143 2186.05 493.931 2187.81 482.782C2191.95 457.128 2196.95 431.596 2206.94 407.364C2208.31 404.016 2210.03 400.806 2211.48 397.478C2212.62 394.936 2213.97 394.576 2216.71 395.504C2221.03 396.981 2222.31 397.904 2219.45 402.78C2210.82 417.476 2205.75 433.7 2201.52 450.138C2196.9 467.898 2193.32 485.91 2190.77 504.083C2190.21 508.188 2189.21 512.391 2190.91 516.533C2188.35 516.449 2185.76 516.396 2183.18 516.325Z" fill="#61A865"/>
<path d="M2279.07 513.664C2281.95 506.588 2280.65 499.072 2281.26 491.783C2284.3 455.553 2291.51 420.457 2307.75 387.606C2309.45 384.169 2311.08 382.681 2314.16 385.896C2315.91 387.713 2314.23 389.281 2313.4 390.778C2293.41 427.355 2286.32 467.134 2284.22 508.148C2284.13 509.876 2283.69 511.813 2285.06 513.375L2279.07 513.664Z" fill="#4D9552"/>
<path d="M2188.62 531.496C2185.48 547.804 2186.33 564.275 2186.72 580.7C2186.8 584.721 2187.49 588.736 2187.44 592.736C2187.39 594.273 2189.2 597.323 2185.72 597.403C2182.85 597.471 2181.77 595.347 2181.65 592.51C2181.22 581.273 2180.5 570.062 2180.55 558.793C2180.57 549.611 2182.38 540.465 2180.89 531.28L2188.62 531.496Z" fill="#61A965"/>
<path d="M2451.25 497.913C2454.53 495.227 2452.55 491.491 2453.15 488.226C2454.54 480.109 2455.53 471.924 2456.99 463.81C2457.26 462.298 2455.42 458.94 2458.83 459.352C2461.62 459.705 2464.54 460.972 2463.67 465.377C2462.12 473.485 2461.1 481.659 2459.91 489.814C2459.6 491.987 2459.51 494.194 2459.32 496.385C2456.8 497.921 2454.03 497.961 2451.25 497.913Z" fill="#80B984"/>
<path d="M2370.22 506.65L2373.37 481.488C2375.41 465.291 2378.25 449.266 2384.03 433.904C2384.56 432.579 2384.22 430.194 2386.86 431.046C2389.71 431.962 2388.27 433.801 2387.65 435.424C2380.41 454.225 2377 473.824 2374.25 493.626C2373.68 497.789 2374.91 502.182 2372.71 506.108L2370.22 506.65Z" fill="#62A966"/>
<path d="M2285.15 529.912C2282.76 534.059 2284.14 538.57 2284.17 542.886C2284.56 561.82 2286.2 580.725 2287.83 599.594C2287.97 601.264 2289.1 603.178 2287.05 604.82C2284.64 603.196 2285.17 600.528 2284.98 598.365C2283.06 576.893 2280.55 555.453 2280.55 533.829C2280.6 533.126 2280.49 532.42 2280.22 531.768C2279.95 531.116 2279.54 530.536 2279 530.074L2285.15 529.912Z" fill="#4F9654"/>
<path d="M2458.54 517.822C2460.06 531.14 2460.23 544.646 2464.86 557.837C2460.02 558.631 2458.5 555.85 2457.37 552.105C2454.01 541.023 2454.13 529.523 2452.61 518.216L2458.54 517.822Z" fill="#80B984"/>
<path d="M2372.43 525.694C2373.12 547.779 2373.85 569.842 2381.41 591.24C2377.19 591.338 2377.04 588.627 2376.38 586.358C2372.94 573.73 2370.96 560.75 2370.47 547.671C2370.08 540.291 2369.57 532.92 2369.12 525.54C2369.64 525.31 2370.22 525.205 2370.79 525.232C2371.36 525.258 2371.92 525.416 2372.43 525.694Z" fill="#63AA67"/>
<path d="M2767.3 254.075C2761.3 256.275 2757.14 261.046 2752.78 265.2C2714.78 301.467 2676.54 337.232 2637.11 371.92C2569.47 431.408 2498.64 486.508 2418.54 528.673C2363.75 557.51 2306.58 579.398 2244.78 587.421C2186.9 594.936 2130.48 590.46 2076.44 566.451C2044.89 552.672 2016.83 531.976 1994.35 505.892C1992.75 504.047 1990.92 502.455 1989.19 500.745C1989.4 494.954 1995.62 492.226 2001.69 495.348C2003.55 496.455 2005.26 497.816 2006.76 499.391C2015.29 511.138 2026.59 520.132 2037.9 528.773C2059.22 545.086 2083.18 556.626 2108.8 564.804C2133.47 572.626 2159.14 576.847 2185.02 577.338C2235 578.449 2284.74 570.132 2331.64 552.822C2339.4 550.002 2347.26 547.356 2354.85 544.013C2411.31 520.239 2463.95 489.717 2513.68 454.045C2558.67 421.742 2601.12 386.357 2642.33 349.477C2671.03 323.783 2699.16 297.485 2727.24 271.104C2729.56 268.916 2732.2 267.097 2733.92 265.475C2724.8 269.159 2715.19 273.643 2704.84 276.107C2667.88 288.26 2629.78 293.519 2591.13 294.702C2555.19 295.798 2519.32 293.617 2483.6 289.53C2438.29 284.386 2393.2 277.324 2347.74 273.331C2315.15 270.48 2282.38 270.428 2249.79 273.175C2243.76 273.581 2237.76 274.449 2231.86 275.769C2198.36 280.425 2166.24 292.244 2137.71 310.422C2112.58 326.264 2090.07 345.936 2071 368.725C2049.72 394.177 2031.64 421.849 2018.1 452.306C2012.61 464.665 2007.28 477.1 2002.82 489.866C1996.49 492.926 1993.45 492.628 1989.72 488.598C1998.92 458.988 2012.41 431.368 2028.63 405.042C2054.39 363.26 2086.97 327.915 2128.16 300.827C2171.25 272.466 2219.35 260.967 2270.19 258.543C2317.82 256.285 2364.94 261.372 2412.07 267.43C2460.91 273.669 2509.65 280.909 2559.02 281.726C2606.29 282.511 2653.06 278.995 2698.49 264.73C2721.65 257.393 2743.72 247.598 2763.98 234.15C2767.06 231.911 2770.86 230.909 2774.64 231.343L2778.26 234.581C2780.21 237.472 2779.32 239.934 2777.1 242.194C2775.3 244.731 2772.35 246.387 2771.35 249.55L2767.3 254.075Z" fill="#15691B"/>
<path d="M2006.18 499.8C2002.41 499.105 2000.36 494.579 1995.53 495.615C1992.19 496.364 1989.82 497.155 1989.26 500.793C1963.78 502.494 1938.3 504.495 1912.79 505.794C1895.32 506.688 1877.81 506.76 1860.32 507.543C1845.39 508.204 1830.41 508.207 1815.4 508.356C1795.42 508.589 1775.46 507.489 1755.44 507.345C1719.1 507.132 1683.07 502.915 1646.95 499.563C1596.25 494.834 1546.1 486.365 1496.05 477.298C1468.54 472.281 1441.16 466.76 1413.78 461.487C1410.99 460.97 1408.17 460.136 1405.36 459.456C1403.73 459.185 1403.36 458.5 1404.65 457.279C1415.35 454.436 1425.57 458.241 1435.79 460.207C1494.12 471.451 1552.24 483.822 1611.27 491.111C1647.06 495.512 1682.87 498.958 1718.96 499.856C1760.85 500.892 1802.7 500.453 1844.59 499.049C1881.53 497.813 1918.41 495.507 1955.3 493.38C1964.96 492.819 1974.61 491.94 1984.25 491.172C1986.39 491.004 1988.87 491.479 1989.79 488.628C1993.67 491.912 1998.16 489.399 2002.32 489.954C2005.39 486.196 2009.81 488.411 2013.48 487.3C2057.6 482.113 2101.38 474.918 2144.82 465.714C2147.58 465.309 2150.31 464.698 2152.98 463.886C2181.47 457.829 2209.72 450.721 2237.92 443.392C2240.11 442.886 2242.3 442.337 2244.47 441.694C2271.7 434.409 2298.81 426.882 2325.67 418.175C2326.76 417.798 2327.86 417.429 2328.96 417.085C2353.98 409.638 2378.81 401.642 2403.47 393.098C2406.24 392.408 2408.9 391.338 2411.38 389.918C2422.31 386.925 2432.69 382.398 2443.16 378.202C2447.81 376.196 2452.97 375.695 2457.91 376.769C2466.98 378.705 2476.21 379.978 2485.2 382.219C2487.07 382.692 2489.78 382.844 2490.05 385.14C2490.38 387.939 2487.45 388.426 2485.48 389.186C2462.66 397.965 2439.52 405.61 2416.25 413.047C2414.07 413.811 2411.83 414.345 2409.62 415.093C2384.26 422.971 2358.81 430.528 2333.36 438.162C2331.97 438.441 2330.59 438.8 2329.24 439.238C2302.5 446.839 2275.65 454.043 2248.57 460.349C2246.36 460.709 2244.19 461.261 2242.08 462C2215 469.027 2187.68 475.123 2160.25 480.443C2158.28 480.826 2156.27 481.253 2154.31 481.627C2151.53 481.959 2148.84 482.707 2146.09 483.184C2112.71 489.249 2079.26 494.735 2045.48 498.118C2036.02 499.072 2026.57 499.708 2017.09 500.364C2015.16 500.347 2013.23 500.585 2011.36 501.072C2009.5 501.311 2007.47 502.083 2006.18 499.8Z" fill="#15691A"/>
<path d="M1404.58 457.214L1405.28 459.392C1403.46 459.775 1401.72 459.732 1400.35 458.227C1400.94 457.764 1401.62 457.433 1402.35 457.258C1403.08 457.084 1403.84 457.069 1404.58 457.214Z" fill="#15691B"/>
<path d="M2153.71 480.474C2183.21 474.242 2212.72 468.216 2241.96 460.684C2245.41 460.667 2245.44 463.491 2245.96 465.721C2250.87 486.702 2257.35 507.219 2263.59 527.826C2257.53 507.329 2251.07 487.009 2246.8 466.062C2246.33 463.82 2244.25 460.997 2247.95 459.326L2329.2 437.951C2332.3 438.023 2331.67 440.651 2332.13 442.403C2335.13 454.539 2338.24 466.642 2342.44 478.437C2344.97 485.165 2348.06 491.665 2351.69 497.867C2341.75 480.699 2336.96 461.748 2332.4 442.724C2331.98 440.943 2331.5 439.165 2332.48 437.42C2351.8 431.424 2371.12 425.43 2390.44 419.439C2396.76 417.496 2403.12 415.671 2409.47 413.787C2411.92 414.779 2412.04 417.203 2412.73 419.235C2415.53 427.628 2417.44 436.327 2421.88 444.106C2422.93 445.939 2423.36 448.38 2426.67 448.706C2422.37 438.969 2418.42 429.334 2415.95 419.239C2415.39 416.951 2414.2 414.671 2415.19 412.195C2434.05 405.697 2452.91 399.19 2471.78 392.674C2478.02 390.681 2484 387.956 2489.6 384.555C2477.12 382.127 2464.58 379.617 2452.05 377.244C2449.76 376.82 2447.76 378.208 2445.66 378.915C2434.3 383.015 2423.38 388.377 2411.51 391.027C2408.8 389.56 2409.52 386.85 2409.36 384.583C2408.81 377.157 2408.52 369.71 2408.08 362.262C2407.93 359.882 2407.89 357.368 2403.76 356.546C2404.52 367.103 2404.6 377.268 2405.83 387.386C2406.14 389.86 2407.39 392.661 2403.96 394.128C2379.82 403.193 2355.12 410.451 2330.52 418.134C2329.92 418.23 2329.31 418.234 2328.71 418.146C2325.21 404.518 2325.57 390.559 2325.18 376.667C2324.88 365.964 2326.14 355.331 2327.17 344.693C2324.8 353.653 2324.69 362.84 2324.81 371.989C2325 386.313 2325.43 400.624 2327.63 414.813C2327.85 416.381 2327.98 418.058 2326.37 419.176C2299.39 428.38 2271.87 435.732 2244.34 443.093C2241.05 442.568 2241.15 439.66 2240.81 437.48C2234.59 397.607 2233.95 357.91 2245.09 318.669C2245.35 317.905 2245.56 317.121 2245.71 316.325C2245.83 315.279 2245.72 314.143 2244.59 313.844C2243.46 313.545 2242.87 314.711 2242.59 315.636C2240.76 322.042 2239.31 328.554 2238.27 335.137C2232.88 367.931 2234.13 400.646 2239.34 433.36C2239.91 436.988 2242.71 441.155 2238.54 444.603C2210.12 452.159 2181.58 459.181 2152.82 465.329C2150.06 464.973 2150.21 462.612 2149.72 460.757C2148.19 454.838 2148.16 448.75 2148 442.695C2147.59 415.113 2147.28 387.439 2152.91 360.12C2153.75 355.986 2154.89 351.879 2156.11 347.827C2156.57 346.299 2158.31 344.262 2155.21 343.513C2153.09 343.002 2151.14 343.323 2150.19 345.677C2149.31 347.937 2148.66 350.28 2148.25 352.671C2144.99 370.953 2143.52 389.509 2143.85 408.077C2144.12 426.236 2144.49 444.372 2146.74 462.432C2146.95 464.018 2147.03 465.74 2145.28 466.711C2115.97 473.534 2086.34 478.588 2056.59 482.927C2042.22 485.017 2027.76 486.588 2013.36 488.397C2010.71 486.498 2011.78 484 2012.59 481.834C2023.32 453.172 2036.17 425.664 2054.87 401.119C2093.52 350.343 2142.61 312.989 2200.46 286.665C2210.86 281.731 2221.63 277.616 2232.67 274.359C2238.66 272.564 2244.84 272.243 2251.04 271.604C2297.73 266.975 2344.15 270.736 2390.52 276.268C2434.18 281.467 2477.66 288.386 2521.57 291.459C2577.83 295.377 2633.72 294.102 2688.63 279.379C2693.51 278.083 2698.29 276.524 2703.13 275.083C2705.23 278.43 2702.2 279.755 2700.44 281.251C2682.41 297.129 2664.16 312.755 2645.71 328.129C2609.15 358.666 2572.8 389.475 2535.34 418.928C2483.14 459.991 2427.02 494.482 2364.45 517.516C2323.92 532.442 2282.11 542.137 2239.26 547.681C2214.39 550.929 2189.43 552.386 2164.39 553.411C2118.69 555.34 2077 542.698 2038.74 518.042C2032.44 514.023 2026.24 509.862 2020.09 505.611C2018.09 504.217 2014.52 503.167 2016.51 499.287C2060.08 496.204 2103.16 489.548 2146.07 481.862C2149.26 482.658 2148.84 485.49 2149.21 487.745C2151.97 504.454 2154.95 521.117 2159.73 537.407C2160.69 540.678 2160.62 540.708 2163.11 543.32C2164.31 540.781 2162.95 538.519 2162.31 536.347C2158 521.23 2154.78 505.823 2152.67 490.245C2152.26 486.96 2150.79 483.442 2153.71 480.474Z" fill="#99CA9C"/>
<path d="M2016.52 499.296C2017.74 504.623 2023.05 505.553 2026.62 508.02C2048.9 523.422 2072.49 536.435 2098.62 544.189C2115.06 549.126 2132.14 551.662 2149.31 551.718C2208.27 551.701 2266.42 544.995 2323.34 529.15C2384.13 512.207 2439.77 484.441 2491.77 448.852C2521.33 428.6 2549.17 406.157 2576.65 383.236C2601.21 362.802 2625.95 342.598 2650.43 322.082C2667.52 307.759 2684.33 293.082 2701.24 278.528C2702.25 277.648 2703.54 276.753 2703.17 275.03C2715.09 271.519 2726.57 266.692 2738.63 262.727C2729.82 271.118 2721.06 279.558 2712.25 287.812C2703.61 295.919 2694.88 303.945 2686.13 311.93C2672.47 324.374 2658.7 336.695 2645.08 349.18C2632.36 360.852 2619.24 372.089 2606.12 383.31C2586.88 399.769 2567.19 415.6 2547.22 431.154C2508.87 461.156 2468.22 488.099 2425.65 511.735C2403.77 523.837 2381.17 534.442 2358.31 544.511C2357.16 544.952 2355.98 545.307 2354.77 545.572C2327.3 551.126 2299.63 555.507 2271.82 558.984C2245.18 562.32 2218.51 564.816 2191.59 565.04C2165.24 565.26 2139.12 563.611 2113.27 558.677C2089.26 554.062 2066.5 546.072 2045.76 532.947C2033.87 525.658 2023.28 516.437 2014.43 505.663C2013.06 503.96 2011.52 502.257 2011.47 499.881C2013.03 499.09 2014.82 498.882 2016.52 499.296Z" fill="#529E57"/>
<path d="M2011.48 499.812C2017.57 506.187 2022.71 513.481 2029.57 519.136C2045.86 532.642 2064.57 542.942 2084.69 549.493C2119.39 560.859 2155.03 563.687 2191.38 563.403C2228.58 563.132 2265.31 558.772 2301.94 553.001C2319.02 550.299 2336.09 547.503 2353.16 544.741C2353.96 544.612 2354.77 544.172 2354.81 545.527C2324.54 558.477 2292.85 567.816 2260.39 573.35C2219.87 580.253 2179.28 581.808 2138.7 573.916C2103 566.984 2069.92 553.864 2040.29 532.379C2029.42 524.512 2019.87 515.294 2010.07 506.27C2008.21 504.602 2006.14 502.748 2006.2 499.782L2011.48 499.812Z" fill="#74B277"/>
<path d="M2232.68 274.368C2230.75 276.723 2227.8 277.125 2225.21 278.116C2176.39 296.26 2131.75 324.102 2093.97 359.964C2083.46 369.788 2074.12 380.605 2064.71 391.357C2050.06 408.08 2038.61 427.008 2029.14 447.056C2023.62 458.669 2018.96 470.716 2013.98 482.592C2013.22 484.411 2012.34 486.349 2013.38 488.422C2009.68 488.916 2005.99 489.404 2002.3 489.886C2002.14 483.831 2005.22 478.707 2007.31 473.388C2021 438.215 2039.91 405.306 2063.4 375.771C2095.67 335.393 2134.67 304.285 2183.43 286.102C2199.29 280.159 2215.65 275.762 2232.68 274.368Z" fill="#74B278"/>
<path d="M2145.3 466.728C2144.53 455.467 2143.55 444.217 2143.01 432.944C2141.85 406.984 2141.55 380.967 2146.4 355.211C2147.06 351.653 2148.09 348.162 2148.83 344.608C2149.43 341.887 2150.68 341.261 2153.56 341.611C2158.08 342.179 2159.52 342.822 2157.72 348.177C2152.25 364.322 2150.59 381.238 2149.79 398.193C2148.89 416.521 2149.04 434.886 2150.25 453.196C2150.53 457.329 2150.41 461.648 2152.91 465.359C2150.38 465.797 2147.84 466.271 2145.3 466.728Z" fill="#61A865"/>
<path d="M2238.64 444.615C2240.02 437.102 2237.23 430.005 2236.34 422.745C2231.95 386.654 2231.86 350.826 2241.08 315.358C2242.05 311.646 2243.34 309.858 2247.01 312.38C2249.09 313.804 2247.77 315.68 2247.26 317.314C2235.13 357.193 2236.27 397.583 2242.57 438.165C2242.83 439.877 2242.79 441.864 2244.45 443.112L2238.64 444.615Z" fill="#4D9552"/>
<path d="M2153.71 480.474C2153.96 497.08 2158.14 513.033 2161.86 529.037C2162.76 532.955 2164.25 536.748 2165.01 540.674C2165.28 542.188 2167.68 544.806 2164.28 545.592C2161.49 546.243 2159.99 544.384 2159.3 541.63C2156.59 530.716 2153.61 519.885 2151.36 508.842C2149.52 499.847 2149.42 490.525 2146.11 481.834L2153.71 480.474Z" fill="#61A965"/>
<path d="M2404.02 394.167C2406.69 390.87 2403.98 387.616 2403.91 384.296C2403.62 376.067 2402.92 367.852 2402.7 359.61C2402.66 358.074 2400.18 355.161 2403.59 354.871C2406.4 354.65 2409.52 355.295 2409.57 359.784C2409.69 368.04 2410.36 376.249 2410.85 384.476C2410.99 386.667 2411.35 388.846 2411.61 391.031C2409.46 393.046 2406.75 393.649 2404.02 394.167Z" fill="#80B984"/>
<path d="M2326.46 419.206L2324.43 393.928C2323.13 377.654 2322.65 361.388 2325.18 345.171C2325.43 343.766 2324.61 341.501 2327.38 341.796C2330.35 342.115 2329.32 344.207 2329.04 345.923C2325.78 365.804 2326.42 385.686 2327.76 405.633C2328.04 409.826 2330.15 413.877 2328.79 418.168L2326.46 419.206Z" fill="#62A966"/>
<path d="M2247.91 459.286C2246.4 463.834 2248.67 467.97 2249.58 472.189C2253.82 490.647 2259.27 508.824 2264.7 526.967C2265.18 528.573 2266.67 530.217 2265.01 532.241C2262.31 531.143 2262.29 528.421 2261.66 526.343C2255.41 505.71 2248.59 485.229 2244.2 464.057C2244.11 463.358 2243.85 462.69 2243.46 462.106C2243.06 461.522 2242.53 461.039 2241.92 460.695L2247.91 459.286Z" fill="#4F9654"/>
<path d="M2415.21 412.177C2419.4 424.908 2422.32 438.096 2429.54 450.07C2424.96 451.831 2422.9 449.418 2421.03 445.982C2415.49 435.815 2413.27 424.53 2409.48 413.769L2415.21 412.177Z" fill="#80B984"/>
<path d="M2332.5 437.402C2337.67 458.883 2342.87 480.337 2354.62 499.75C2350.51 500.705 2349.82 498.08 2348.71 495.994C2342.77 484.329 2338.19 472.024 2335.05 459.318C2333.17 452.172 2331.17 445.058 2329.23 437.924C2329.69 437.592 2330.23 437.373 2330.8 437.282C2331.37 437.192 2331.95 437.233 2332.5 437.402Z" fill="#63AA67"/>
<path d="M2649.6 24.0912C2644.6 28.0649 2642.15 33.9028 2639.32 39.2177C2614.65 85.5962 2589.61 131.571 2563.08 176.902C2517.58 254.645 2467.68 329.226 2404.91 394.443C2361.97 439.05 2314.59 477.807 2258.44 504.861C2205.86 530.2 2150.9 543.694 2092.05 537.899C2057.76 534.745 2024.62 523.923 1995.08 506.233C1992.98 504.986 1990.74 504.05 1988.56 502.97C1986.94 497.407 1991.99 492.86 1998.73 493.917C2000.85 494.381 2002.9 495.135 2004.81 496.159C2016.6 504.629 2030.16 509.611 2043.62 514.255C2068.99 523.034 2095.36 526.454 2122.25 526.158C2148.13 525.825 2173.82 521.758 2198.54 514.085C2246.34 499.42 2290.94 475.88 2330.02 444.696C2336.49 439.58 2343.12 434.597 2349.28 429.036C2395.39 388.71 2435.76 343.181 2471.75 293.679C2504.29 248.867 2533.46 201.925 2560.98 153.956C2580.14 120.54 2598.57 86.7277 2616.93 52.8543C2618.45 50.0477 2620.38 47.4906 2621.5 45.411C2614 51.7761 2606.29 59.054 2597.24 64.6485C2565.98 87.8079 2531.47 104.785 2495.15 118.065C2461.38 130.407 2426.65 139.617 2391.45 146.973C2346.82 156.342 2301.8 163.819 2257.39 174.328C2225.56 181.87 2194.44 192.127 2164.36 204.986C2158.76 207.269 2153.35 209.978 2148.16 213.087C2117.82 228.045 2091.05 249.364 2069.69 275.593C2050.81 298.537 2035.63 324.289 2024.7 351.918C2012.5 382.773 2004.04 414.727 2000.77 447.897C1999.44 461.355 1998.29 474.837 1998.08 488.357C1993.04 493.251 1990.06 493.924 1985.25 491.272C1984.66 460.273 1988.78 429.813 1995.9 399.721C2007.21 351.957 2027.02 308.159 2057.6 269.491C2089.59 229.015 2131.62 202.973 2179.12 184.68C2223.63 167.557 2269.96 157.566 2316.6 148.492C2364.93 139.053 2413.47 130.596 2460.59 115.844C2505.71 101.724 2549 83.6753 2587.63 55.8462C2607.31 41.5978 2625.18 25.359 2640.19 6.21892C2642.4 3.12623 2645.7 0.978691 2649.42 0.201904L2653.87 2.13963C2656.63 4.26951 2656.57 6.88566 2655.17 9.72954C2654.25 12.7053 2651.97 15.2047 2652.03 18.5207L2649.6 24.0912Z" fill="#15691B"/>
<path d="M2004.39 496.73C2000.59 497.256 1997.22 493.605 1992.97 496.106C1990.03 497.868 1988.03 499.365 1988.65 502.993C1964.99 512.623 1941.44 522.536 1917.62 531.794C1901.33 538.135 1884.73 543.709 1868.37 549.956C1854.41 555.277 1840.18 559.994 1825.99 564.855C1807.09 571.36 1787.8 576.594 1768.75 582.754C1734.18 593.982 1698.66 601.311 1663.32 609.489C1613.7 620.946 1563.44 628.679 1513.07 635.814C1485.38 639.704 1457.65 643.075 1430.01 646.68C1427.19 647.068 1424.25 647.164 1421.37 647.403C1419.74 647.657 1419.18 647.122 1420.02 645.557C1429.27 639.495 1440.17 639.892 1450.5 638.543C1509.41 630.869 1568.46 624.334 1626.79 612.689C1662.15 605.607 1697.22 597.617 1731.76 587.119C1771.86 574.926 1811.44 561.348 1850.77 546.839C1885.45 534.047 1919.73 520.26 1954.08 506.638C1963.07 503.067 1971.95 499.198 1980.87 495.436C1982.84 494.604 1985.34 494.276 1985.32 491.279C1990.04 493.175 1993.51 489.38 1997.63 488.598C1999.37 484.063 2004.26 484.777 2007.39 482.569C2047.64 463.769 2086.93 443.169 2125.28 420.768C2127.77 419.516 2130.17 418.079 2132.44 416.469C2157.59 401.758 2182.16 386.126 2206.63 370.299C2208.55 369.128 2210.46 367.919 2212.32 366.626C2235.88 351.146 2259.24 335.475 2282 318.761C2282.91 318.061 2283.84 317.366 2284.78 316.691C2306.18 301.754 2327.24 286.354 2347.96 270.49C2350.37 268.962 2352.57 267.108 2354.47 264.98C2363.9 258.703 2372.33 251.143 2380.95 243.866C2384.73 240.5 2389.47 238.402 2394.51 237.865C2403.72 236.852 2412.88 235.156 2422.12 234.457C2424.04 234.317 2426.67 233.608 2427.65 235.702C2428.84 238.257 2426.21 239.64 2424.58 240.98C2405.68 256.492 2386.12 271.027 2366.37 285.404C2364.54 286.816 2362.58 288.027 2360.71 289.435C2339.12 304.887 2317.34 320.067 2295.58 335.316C2294.35 336.019 2293.15 336.793 2292.01 337.634C2269.02 353.257 2245.8 368.54 2222.07 383.046C2220.09 384.082 2218.21 385.288 2216.44 386.652C2192.94 401.841 2168.92 416.221 2144.56 429.896C2142.81 430.88 2141.03 431.918 2139.29 432.891C2136.76 434.078 2134.44 435.634 2131.97 436.954C2102.2 453.207 2072.17 468.937 2041.17 482.773C2032.49 486.653 2023.72 490.229 2014.93 493.832C2013.09 494.425 2011.33 495.257 2009.71 496.308C2008.02 497.119 2006.34 498.49 2004.39 496.73Z" fill="#15691A"/>
<path d="M1419.93 645.518L1421.28 647.364C1419.67 648.302 1418.01 648.808 1416.23 647.81C1416.65 647.184 1417.19 646.655 1417.83 646.26C1418.47 645.864 1419.18 645.611 1419.93 645.518Z" fill="#15691B"/>
<path d="M2138.36 431.984C2164.4 416.791 2190.51 401.789 2215.91 385.441C2219.18 384.34 2220.09 387.013 2221.29 388.964C2232.55 407.337 2245.15 424.774 2257.55 442.375C2245.36 424.823 2232.83 407.566 2222.19 389.025C2221.04 387.044 2218.18 385.017 2221.16 382.269L2291.57 336.424C2294.53 335.518 2294.76 338.211 2295.75 339.728C2302.42 350.304 2309.17 360.816 2316.87 370.691C2321.38 376.283 2326.36 381.481 2331.76 386.227C2316.92 373.056 2306.42 356.573 2296.11 339.948C2295.14 338.391 2294.13 336.853 2294.51 334.889C2310.96 323.121 2327.42 311.354 2343.88 299.59C2349.27 295.758 2354.73 292.026 2360.16 288.242C2362.8 288.412 2363.68 290.674 2364.97 292.387C2370.27 299.472 2374.82 307.13 2381.48 313.116C2383.05 314.527 2384.23 316.708 2387.47 315.977C2380.33 308.088 2373.54 300.185 2368.03 291.378C2366.78 289.38 2364.93 287.593 2365.1 284.928C2380.95 272.83 2396.81 260.72 2412.68 248.599C2417.97 244.746 2422.79 240.278 2427.03 235.289C2414.42 236.911 2401.73 238.472 2389.09 240.161C2386.78 240.478 2385.32 242.423 2383.55 243.755C2374.05 251.22 2365.38 259.744 2354.94 265.993C2351.91 265.452 2351.74 262.653 2350.87 260.554C2348.02 253.676 2345.4 246.699 2342.64 239.768C2341.75 237.555 2340.92 235.182 2336.74 235.701C2340.78 245.482 2344.05 255.108 2348.41 264.323C2349.48 266.575 2351.55 268.839 2348.75 271.311C2328.69 287.508 2307.53 302.167 2286.58 317.199C2286.05 317.478 2285.47 317.673 2284.88 317.778C2277.27 305.943 2273.22 292.578 2268.47 279.516C2264.83 269.448 2262.68 258.959 2260.31 248.536C2260.87 257.789 2263.66 266.544 2266.65 275.191C2271.34 288.728 2276.25 302.178 2282.8 314.955C2283.5 316.373 2284.15 317.925 2282.98 319.491C2260.26 336.714 2236.45 352.349 2212.63 367.994C2209.34 368.532 2208.52 365.74 2207.51 363.778C2189.07 327.883 2175.98 290.402 2174.21 249.651C2174.22 248.841 2174.17 248.032 2174.06 247.231C2173.85 246.199 2173.39 245.153 2172.22 245.226C2171.05 245.298 2170.86 246.59 2170.89 247.556C2171.16 254.214 2171.83 260.85 2172.92 267.425C2178.12 300.25 2189.59 330.914 2204.82 360.33C2206.51 363.592 2210.47 366.669 2207.6 371.253C2183 387.364 2158.11 403.006 2132.75 417.886C2130.02 418.416 2129.42 416.129 2128.37 414.522C2125.05 409.385 2123.11 403.616 2121.05 397.919C2111.99 371.864 2102.99 345.693 2099.74 317.99C2099.24 313.802 2099.03 309.543 2098.92 305.313C2098.87 303.718 2099.89 301.237 2096.7 301.503C2094.53 301.683 2092.78 302.601 2092.62 305.135C2092.49 307.557 2092.61 309.985 2092.98 312.383C2095.64 330.762 2100.07 348.84 2106.23 366.363C2112.19 383.515 2118.25 400.614 2126.07 417.05C2126.76 418.49 2127.38 420.098 2126.03 421.571C2100.35 437.266 2073.81 451.382 2046.93 464.86C2033.95 471.363 2020.73 477.4 2007.62 483.649C2004.51 482.678 2004.74 479.972 2004.83 477.658C2006 447.077 2009.54 416.924 2019.57 387.744C2040.3 327.386 2075.15 276.488 2121.78 233.306C2130.1 225.351 2139.03 218.058 2148.48 211.495C2153.61 207.906 2159.38 205.657 2165.05 203.103C2207.92 184.023 2253.17 172.992 2298.92 163.662C2342 154.863 2385.45 147.757 2428.1 136.863C2482.74 122.886 2535.39 104.099 2582.88 72.8531C2587.1 70.0882 2591.16 67.1042 2595.3 64.2131C2598.34 66.7301 2595.89 68.9401 2594.68 70.9156C2582.56 91.6597 2570.16 112.23 2557.48 132.627C2532.38 173.114 2507.56 213.791 2481.26 253.532C2444.63 308.929 2402.21 359.319 2350.05 400.865C2316.27 427.781 2279.64 450.132 2240.7 468.874C2218.12 479.778 2194.89 489.011 2171.44 497.859C2128.66 514.066 2085.11 515.176 2041.04 503.805C2033.79 501.972 2026.59 499.973 2019.43 497.869C2017.08 497.178 2013.36 497.304 2014.04 492.994C2054.42 476.365 2093.23 456.495 2131.54 435.706C2134.82 435.456 2135.31 438.277 2136.37 440.301C2144.25 455.294 2152.32 470.174 2161.98 484.133C2163.92 486.937 2163.86 486.989 2167.05 488.683C2167.39 485.895 2165.39 484.176 2164.09 482.316C2155.25 469.324 2147.34 455.711 2140.45 441.585C2139.02 438.597 2136.52 435.72 2138.36 431.984Z" fill="#99CA9C"/>
<path d="M2014.05 492.999C2016.88 497.673 2022.21 496.886 2026.38 498.106C2052.38 505.716 2078.86 510.651 2106.1 509.794C2123.26 509.307 2140.27 506.343 2156.59 500.995C2212.55 482.435 2265.64 457.78 2314.68 424.839C2367.06 389.636 2411.15 345.779 2449.32 295.64C2471 267.12 2490.37 237.061 2509.25 206.658C2526.14 179.537 2543.27 152.578 2560.05 125.403C2571.77 106.431 2583.11 87.2132 2594.58 68.0806C2595.27 66.9253 2596.21 65.6697 2595.31 64.153C2605.53 57.0684 2614.91 48.8768 2625.1 41.3208C2619.38 52.0569 2613.73 62.8221 2607.95 73.4305C2602.31 83.8422 2596.55 94.2054 2590.75 104.538C2581.69 120.648 2572.5 136.673 2563.5 152.807C2555.09 167.889 2546.17 182.683 2537.25 197.461C2524.17 219.134 2510.45 240.357 2496.38 261.402C2469.41 301.944 2439.3 340.304 2406.33 376.13C2389.37 394.498 2371.25 411.674 2352.72 428.42C2351.76 429.201 2350.75 429.909 2349.69 430.54C2325.36 444.454 2300.47 457.316 2275.16 469.363C2250.92 480.908 2226.39 491.665 2200.92 500.343C2175.97 508.841 2150.66 515.49 2124.56 518.937C2100.32 522.108 2076.21 521.681 2052.39 515.748C2038.81 512.567 2025.86 507.144 2014.07 499.701C2012.23 498.516 2010.23 497.383 2009.44 495.144C2010.67 493.902 2012.3 493.141 2014.05 492.999Z" fill="#529E57"/>
<path d="M2009.43 495.074C2017.22 499.208 2024.39 504.516 2032.67 507.729C2052.39 515.425 2073.38 519.32 2094.55 519.208C2131.06 519.083 2165.79 510.557 2200.2 498.855C2235.43 486.897 2268.92 471.208 2301.87 454.21C2317.24 446.273 2332.56 438.251 2347.9 430.26C2348.61 429.886 2349.25 429.211 2349.72 430.485C2325.05 452.299 2297.9 471.132 2268.83 486.594C2232.54 505.892 2194.5 520.132 2153.5 525.404C2117.43 530.052 2081.91 528.001 2047.02 516.927C2034.23 512.877 2022.26 507.133 2010.12 501.647C2007.83 500.649 2005.29 499.54 2004.4 496.708L2009.43 495.074Z" fill="#74B277"/>
<path d="M2148.49 211.5C2147.4 214.344 2144.73 215.653 2142.59 217.406C2101.95 249.985 2068.33 290.455 2043.75 336.378C2036.86 349.011 2031.39 362.216 2025.84 375.382C2017.2 395.864 2012.28 417.431 2009.6 439.44C2008.01 452.201 2007.38 465.102 2006.39 477.94C2006.23 479.909 2006.01 482.023 2007.65 483.663C2004.29 485.296 2000.94 486.922 1997.59 488.54C1995.53 482.842 1996.84 477.01 1997.16 471.301C1999.09 433.609 2006.69 396.424 2019.7 360.998C2037.63 312.52 2064.87 270.725 2105.43 238.129C2118.62 227.498 2132.76 218.18 2148.49 211.5Z" fill="#74B278"/>
<path d="M2126.05 421.581C2121.78 411.133 2117.31 400.761 2113.25 390.233C2103.98 365.954 2095.52 341.351 2092.02 315.378C2091.53 311.792 2091.41 308.154 2091 304.547C2090.71 301.776 2091.69 300.79 2094.54 300.216C2099.01 299.333 2100.58 299.489 2100.55 305.14C2100.44 322.184 2104.19 338.764 2108.76 355.111C2113.66 372.793 2119.58 390.179 2126.49 407.18C2128.06 411.013 2129.3 415.152 2132.84 417.887C2130.58 419.098 2128.32 420.347 2126.05 421.581Z" fill="#61A865"/>
<path d="M2207.7 371.231C2206.65 363.667 2201.76 357.809 2198.64 351.195C2183.12 318.318 2171.77 284.335 2169.37 247.766C2169.11 243.94 2169.78 241.835 2174.06 243.076C2176.48 243.774 2175.81 245.97 2175.85 247.68C2176.87 289.35 2190.66 327.332 2209.4 363.874C2210.18 365.419 2210.77 367.316 2212.75 367.978L2207.7 371.231Z" fill="#4D9552"/>
<path d="M2138.36 431.984C2143.81 447.669 2152.81 461.496 2161.37 475.519C2163.45 478.955 2166.06 482.087 2168.02 485.574C2168.75 486.926 2171.85 488.658 2168.88 490.471C2166.42 491.97 2164.42 490.674 2162.9 488.278C2156.89 478.769 2150.66 469.425 2145.05 459.651C2140.47 451.691 2137.45 442.873 2131.57 435.666L2138.36 431.984Z" fill="#61A965"/>
<path d="M2348.82 271.329C2350.31 267.362 2346.72 265.123 2345.61 261.994C2342.75 254.275 2339.5 246.696 2336.7 238.941C2336.18 237.496 2332.9 235.513 2336.06 234.162C2338.65 233.069 2341.81 232.701 2343.27 236.948C2345.98 244.745 2349.2 252.326 2352.26 259.981C2353.08 262.018 2354.1 263.973 2355.04 265.966C2353.63 268.555 2351.25 269.979 2348.82 271.329Z" fill="#80B984"/>
<path d="M2283.07 319.492L2273.19 296.137C2266.84 281.095 2261.27 265.807 2258.57 249.617C2258.37 248.205 2256.88 246.312 2259.59 245.723C2262.52 245.091 2262.2 247.399 2262.47 249.118C2265.63 269.015 2272.49 287.684 2280.04 306.198C2281.62 310.091 2284.89 313.274 2284.96 317.774L2283.07 319.492Z" fill="#62A966"/>
<path d="M2221.11 382.244C2221.11 387.035 2224.57 390.247 2226.76 393.966C2236.59 410.154 2247.48 425.694 2258.34 441.209C2259.3 442.581 2261.23 443.674 2260.29 446.119C2257.38 445.925 2256.51 443.348 2255.26 441.573C2242.84 423.951 2229.92 406.655 2219.09 387.94C2218.78 387.305 2218.33 386.75 2217.77 386.321C2217.21 385.891 2216.56 385.598 2215.87 385.465L2221.11 382.244Z" fill="#4F9654"/>
<path d="M2365.11 284.906C2373.09 295.674 2380.01 307.274 2390.62 316.37C2386.83 319.482 2384.12 317.838 2381.27 315.165C2372.8 307.258 2367.15 297.242 2360.17 288.219L2365.11 284.906Z" fill="#80B984"/>
<path d="M2294.52 334.867C2306.19 353.63 2317.88 372.36 2335.14 387.091C2331.53 389.291 2330.05 387.017 2328.34 385.386C2319.04 376.181 2310.82 365.941 2303.84 354.867C2299.8 348.677 2295.67 342.551 2291.58 336.391C2291.92 335.928 2292.37 335.551 2292.88 335.286C2293.39 335.022 2293.95 334.878 2294.52 334.867Z" fill="#63AA67"/>
<path d="M153.966 366.758V427.46H242.808C234.768 456.404 209.442 475.298 171.654 475.298C134.268 475.298 90.048 448.364 90.048 386.054C90.048 327.362 133.866 299.624 171.252 299.624C203.412 299.624 225.12 317.312 236.778 338.216H322.002C305.52 280.73 244.416 232.892 173.262 232.892C85.626 232.892 14.07 297.212 14.07 386.054C14.07 471.68 82.008 542.03 172.056 542.03C254.466 542.03 330.846 482.132 330.846 382.436C330.846 376.406 330.846 371.984 330.444 366.758H153.966ZM328.641 536H395.373V413.39C395.373 379.622 417.081 373.19 448.035 372.386V305.252C409.443 305.252 397.785 325.754 392.157 336.608H391.353V312.89H328.641V536ZM582.052 466.052C572.806 477.71 561.952 486.956 541.45 486.956C515.32 486.956 493.21 471.278 489.19 444.746H656.422C657.226 439.52 658.03 435.902 658.03 427.058C658.03 359.12 608.182 305.252 540.244 305.252C472.306 305.252 423.262 362.738 423.262 425.048C423.262 491.378 477.532 543.236 541.45 543.236C564.364 543.236 586.474 536.402 604.966 523.136C623.86 510.272 639.538 490.976 650.392 466.052H582.052ZM489.994 399.722C492.808 386.456 506.074 361.532 540.646 361.532C575.218 361.532 588.484 386.456 591.298 399.722H489.994ZM803.749 466.052C794.503 477.71 783.649 486.956 763.147 486.956C737.017 486.956 714.907 471.278 710.887 444.746H878.119C878.923 439.52 879.727 435.902 879.727 427.058C879.727 359.12 829.879 305.252 761.941 305.252C694.003 305.252 644.959 362.738 644.959 425.048C644.959 491.378 699.229 543.236 763.147 543.236C786.061 543.236 808.171 536.402 826.663 523.136C845.557 510.272 861.235 490.976 872.089 466.052H803.749ZM711.691 399.722C714.505 386.456 727.771 361.532 762.343 361.532C796.915 361.532 810.181 386.456 812.995 399.722H711.691ZM878.715 536H945.447V414.596C945.447 400.928 945.447 367.964 983.637 367.964C1018.61 367.964 1018.61 398.516 1018.61 414.194V536H1085.34V396.506C1085.34 352.688 1071.68 335 1059.62 324.548C1047.56 314.096 1023.84 305.252 1002.53 305.252C962.733 305.252 948.663 325.754 941.829 336.608H941.025V312.89H878.715V536Z" fill="#99CA9C"/>
<path d="M1312.81 424.646C1307.99 435.098 1288.69 474.896 1241.25 474.896C1191.81 474.896 1161.26 431.48 1161.26 386.456C1161.26 344.246 1189.8 299.624 1240.85 299.624C1281.86 299.624 1304.37 329.372 1312.81 351.482H1392.41C1384.37 304.85 1334.52 232.892 1241.25 232.892C1143.97 232.892 1085.28 310.88 1085.28 386.858C1085.28 467.258 1148.79 541.628 1242.06 541.628C1314.02 541.628 1375.12 494.996 1392.41 424.646H1312.81ZM1380.36 424.244C1380.36 478.916 1419.35 542.834 1500.56 542.834C1581.76 542.834 1620.75 478.916 1620.75 424.244C1620.75 369.572 1581.76 305.654 1500.56 305.654C1419.35 305.654 1380.36 369.572 1380.36 424.244ZM1447.09 424.244C1447.09 391.682 1471.61 367.964 1500.56 367.964C1529.5 367.964 1554.02 391.682 1554.02 424.244C1554.02 456.806 1529.5 480.524 1500.56 480.524C1471.61 480.524 1447.09 456.806 1447.09 424.244ZM1852.71 238.52H1785.98V331.784C1778.75 324.548 1759.85 305.252 1720.46 305.252C1663.77 305.252 1609.91 348.266 1609.91 423.842C1609.91 490.976 1654.13 543.236 1721.66 543.236C1766.69 543.236 1782.77 521.126 1788.39 511.88H1789.2V536H1852.71V238.52ZM1676.64 423.44C1676.64 397.712 1694.73 367.562 1733.32 367.562C1770.3 367.562 1789.6 396.506 1789.6 423.44C1789.6 446.756 1774.32 480.926 1732.52 480.926C1701.16 480.926 1676.64 458.012 1676.64 423.44ZM2009.59 466.052C2000.35 477.71 1989.49 486.956 1968.99 486.956C1942.86 486.956 1920.75 471.278 1916.73 444.746H2083.96C2084.77 439.52 2085.57 435.902 2085.57 427.058C2085.57 359.12 2035.72 305.252 1967.78 305.252C1899.85 305.252 1850.8 362.738 1850.8 425.048C1850.8 491.378 1905.07 543.236 1968.99 543.236C1991.9 543.236 2014.01 536.402 2032.51 523.136C2051.4 510.272 2067.08 490.976 2077.93 466.052H2009.59ZM1917.53 399.722C1920.35 386.456 1933.61 361.532 1968.19 361.532C2002.76 361.532 2016.02 386.456 2018.84 399.722H1917.53Z" fill="#3F3F3F"/>
</svg>
