<svg width="117" height="17" viewBox="0 0 117 17" fill="none" xmlns="http://www.w3.org/2000/svg">
<path d="M73.3277 10.5039C73.055 11.0764 71.9645 13.2565 69.2837 13.2565C66.4893 13.2565 64.7626 10.8782 64.7626 8.41192C64.7626 6.09974 66.3757 3.65544 69.261 3.65544C71.5783 3.65544 72.8506 5.28497 73.3277 6.49611H77.826C77.3716 3.94171 74.5545 0 69.2837 0C63.7857 0 60.4688 4.27202 60.4688 8.43394C60.4688 12.8381 64.0583 16.9119 69.3291 16.9119C73.3958 16.9119 76.8491 14.3575 77.826 10.5039H73.3277Z" fill="#3F3F3F"/>
<path d="M77.1452 10.4819C77.1452 13.4767 79.3489 16.978 83.9381 16.978C88.5273 16.978 90.7311 13.4767 90.7311 10.4819C90.7311 7.48705 88.5273 3.98575 83.9381 3.98575C79.3489 3.98575 77.1452 7.48705 77.1452 10.4819ZM80.9165 10.4819C80.9165 8.69819 82.3023 7.39896 83.9381 7.39896C85.5739 7.39896 86.9597 8.69819 86.9597 10.4819C86.9597 12.2655 85.5739 13.5648 83.9381 13.5648C82.3023 13.5648 80.9165 12.2655 80.9165 10.4819Z" fill="#3F3F3F"/>
<path d="M103.84 0.30829H100.069V5.4171C99.66 5.02073 98.5922 3.96373 96.3657 3.96373C93.1623 3.96373 90.118 6.31995 90.118 10.4598C90.118 14.1373 92.6171 17 96.4339 17C98.9784 17 99.8871 15.7889 100.205 15.2824H100.251V16.6036H103.84V0.30829ZM93.8894 10.4378C93.8894 9.0285 94.9117 7.37694 97.0927 7.37694C99.1829 7.37694 100.273 8.96244 100.273 10.4378C100.273 11.715 99.41 13.5868 97.0473 13.5868C95.2752 13.5868 93.8894 12.3316 93.8894 10.4378Z" fill="#3F3F3F"/>
<path d="M112.706 12.772C112.184 13.4106 111.57 13.9171 110.412 13.9171C108.935 13.9171 107.685 13.0583 107.458 11.6049H116.909C116.955 11.3187 117 11.1205 117 10.636C117 6.91451 114.183 3.96373 110.343 3.96373C106.504 3.96373 103.732 7.11269 103.732 10.5259C103.732 14.1593 106.799 17 110.412 17C111.706 17 112.956 16.6256 114.001 15.899C115.069 15.1943 115.955 14.1373 116.568 12.772H112.706ZM107.503 9.1386C107.663 8.41192 108.412 7.04663 110.366 7.04663C112.32 7.04663 113.07 8.41192 113.229 9.1386H107.503Z" fill="#3F3F3F"/>
<path d="M7.89652 7.3329V10.658H12.9113C12.4574 12.2435 11.0279 13.2785 8.89493 13.2785C6.78466 13.2785 4.28863 11.8031 4.28863 8.3899C4.28863 5.17487 6.76197 3.65544 8.87224 3.65544C10.6875 3.65544 11.9129 4.62435 12.5709 5.76943H17.3814C16.4511 2.62047 13.002 0 8.9857 0C4.03903 0 0 3.52332 0 8.3899C0 13.0803 3.83481 16.9339 8.91763 16.9339C13.5693 16.9339 17.8806 13.6528 17.8806 8.19171C17.8806 7.8614 17.8806 7.61917 17.8579 7.3329H7.89652Z" fill="#99CA9C"/>
<path d="M17.7562 16.6036H21.5229V9.88731C21.5229 8.03756 22.7482 7.68523 24.4955 7.64119V3.96373C22.3171 3.96373 21.6591 5.08679 21.3414 5.68135H21.296V4.38212H17.7562V16.6036Z" fill="#99CA9C"/>
<path d="M32.0601 12.772C31.5382 13.4106 30.9256 13.9171 29.7683 13.9171C28.2934 13.9171 27.0454 13.0583 26.8185 11.6049H36.258C36.3034 11.3187 36.3488 11.1205 36.3488 10.636C36.3488 6.91451 33.5351 3.96373 29.7002 3.96373C25.8654 3.96373 23.0971 7.11269 23.0971 10.5259C23.0971 14.1593 26.1604 17 29.7683 17C31.0617 17 32.3097 16.6256 33.3535 15.899C34.42 15.1943 35.305 14.1373 35.9176 12.772H32.0601ZM26.8639 9.1386C27.0227 8.41192 27.7715 7.04663 29.7229 7.04663C31.6744 7.04663 32.4232 8.41192 32.582 9.1386H26.8639Z" fill="#99CA9C"/>
<path d="M44.574 12.772C44.0521 13.4106 43.4394 13.9171 42.2821 13.9171C40.8072 13.9171 39.5592 13.0583 39.3323 11.6049H48.7718C48.8172 11.3187 48.8626 11.1205 48.8626 10.636C48.8626 6.91451 46.0489 3.96373 42.2141 3.96373C38.3793 3.96373 35.6109 7.11269 35.6109 10.5259C35.6109 14.1593 38.6742 17 42.2821 17C43.5755 17 44.8236 16.6256 45.8673 15.899C46.9338 15.1943 47.8188 14.1373 48.4314 12.772H44.574ZM39.3777 9.1386C39.5365 8.41192 40.2853 7.04663 42.2368 7.04663C44.1882 7.04663 44.937 8.41192 45.0958 9.1386H39.3777Z" fill="#99CA9C"/>
<path d="M48.8055 16.6036H52.5722V9.95337C52.5722 9.20466 52.5722 7.39896 54.7279 7.39896C56.702 7.39896 56.702 9.07254 56.702 9.93135V16.6036H60.4688V8.96243C60.4688 6.56218 59.6973 5.59326 59.0165 5.02072C58.3358 4.44819 56.997 3.96373 55.7944 3.96373C53.5479 3.96373 52.7538 5.08679 52.368 5.68135H52.3226V4.38212H48.8055V16.6036Z" fill="#99CA9C"/>
</svg>
