<svg width="50" height="50" viewBox="0 0 50 50" fill="none" xmlns="http://www.w3.org/2000/svg">
<path d="M47.9167 22.9167C46.7667 22.9167 45.8333 23.85 45.8333 25C45.8333 36.4875 36.4875 45.8333 25 45.8333C13.5125 45.8333 4.16667 36.4875 4.16667 25C4.16667 13.5125 13.5125 4.16667 25 4.16667C30.5927 4.16667 35.8427 6.35208 39.7844 10.3208C40.5938 11.1375 41.9135 11.1427 42.7302 10.3313C43.5469 9.52083 43.551 8.20208 42.7406 7.38542C38.0115 2.62292 31.7104 0 25 0C11.2146 0 0 11.2146 0 25C0 38.7854 11.2146 50 25 50C38.7854 50 50 38.7854 50 25C50 23.85 49.0667 22.9167 47.9167 22.9167Z" fill="white"/>
<path d="M33.333 22.9168H27.083V16.6668C27.083 15.5168 26.1497 14.5835 24.9997 14.5835C23.8497 14.5835 22.9163 15.5168 22.9163 16.6668V22.9168H16.6663C15.5163 22.9168 14.583 23.8502 14.583 25.0002C14.583 26.1502 15.5163 27.0835 16.6663 27.0835H22.9163V33.3335C22.9163 34.4835 23.8497 35.4168 24.9997 35.4168C26.1497 35.4168 27.083 34.4835 27.083 33.3335V27.0835H33.333C34.483 27.0835 35.4163 26.1502 35.4163 25.0002C35.4163 23.8502 34.483 22.9168 33.333 22.9168Z" fill="white"/>
</svg>
