<svg width="18" height="18" viewBox="0 0 18 18" fill="none" xmlns="http://www.w3.org/2000/svg">
<path d="M9 -0.000488281C4.0302 -0.000488281 0 4.02971 0 8.99951C0 13.9693 4.0302 17.9995 9 17.9995C13.9698 17.9995 18 13.9693 18 8.99951C18 4.02971 13.9698 -0.000488281 9 -0.000488281ZM13.1093 7.01675C13.1133 7.10533 13.1152 7.19432 13.1152 7.28372C13.1152 10.0134 11.0374 13.1611 7.23766 13.1613H7.23779H7.23766C6.07104 13.1613 4.98546 12.8193 4.07126 12.2333C4.23289 12.2524 4.39742 12.2619 4.564 12.2619C5.53189 12.2619 6.42261 11.9318 7.12971 11.3776C6.2254 11.3609 5.46295 10.7636 5.19983 9.94283C5.32576 9.967 5.45526 9.98018 5.58806 9.98018C5.77661 9.98018 5.95926 9.95477 6.13284 9.90739C5.18761 9.71815 4.47556 8.88278 4.47556 7.88248C4.47556 7.87314 4.47556 7.86476 4.47583 7.85611C4.7542 8.01088 5.07253 8.10399 5.41145 8.11443C4.85678 7.74432 4.49217 7.11165 4.49217 6.39493C4.49217 6.01645 4.59448 5.66187 4.77191 5.35658C5.79062 6.60655 7.31305 7.4286 9.02994 7.51498C8.99451 7.36365 8.97624 7.20599 8.97624 7.04395C8.97624 5.90356 9.90143 4.97838 11.0422 4.97838C11.6364 4.97838 12.1731 5.22955 12.5501 5.6311C13.0207 5.53827 13.4626 5.36633 13.8619 5.12971C13.7074 5.61188 13.38 6.01645 12.9534 6.27229C13.3713 6.22231 13.7696 6.11148 14.1397 5.94696C13.8632 6.36128 13.5126 6.7252 13.1093 7.01675Z" fill="#333333"/>
</svg>
